<ttFont>
          <CharString index="0">
            -84 callsubr
            -144 68 -86 164 -59 callsubr
            145 -69 83 -164 hvcurveto
            -31 -124 rmoveto
            69 22 -52 -68 -134 -51 -194 -115 -55 callgsubr
            51 191 115 hvcurveto
            return
          </CharString>
          <CharString index="1">
            hstem
            22 159 128 153 vstem
            -107 callgsubr
            return
          </CharString>
          <CharString index="2">
            207 109 -100 callsubr
            -48 -118 rmoveto
            -87 callgsubr
            return
          </CharString>
          <CharString index="3">
            56 53 25 0 hvcurveto
            108 vlineto
            -1 -3 -28 -10 -14 hhcurveto
            -12 -1 -57 callgsubr
            65 331 rlineto
            -153 hlineto
            -74 -369 -58 callsubr
            41 -39 70 vhcurveto
            return
          </CharString>
          <CharString index="4">
            hstem
            6 callgsubr
            257 173 vstem
            -107 callsubr
            return
          </CharString>
          <CharString index="5">
            -20 hstem
            37 165 -105 callgsubr
            return
          </CharString>
          <CharString index="6">
            -36 callgsubr
            162 vstem
            -106 callgsubr
            return
          </CharString>
          <CharString index="7">
            -79 callsubr
            14 -22 callgsubr
            hvcurveto
            -78 callgsubr
            return
          </CharString>
          <CharString index="8">
            rmoveto
            23 15 -18 -41 -93 -35 -142 -64 -24 -15 17 40 95 35 142 65 hvcurveto
            return
          </CharString>
          <CharString index="9">
            27 -74 callsubr
            287 -103 callgsubr
            return
          </CharString>
          <CharString index="10">
            37 43 45 -24 27 -51 hvcurveto
            return
          </CharString>
          <CharString index="11">
            -95 callsubr
            29 rlineto
            -3 -28 -5 -34 -23 -93 callgsubr
            return
          </CharString>
          <CharString index="12">
            -78 -57 -93 -105 vvcurveto
            -80 38 -44 87 79 57 39 88 41 vhcurveto
            13 return
          </CharString>
          <CharString index="13">
            vvcurveto
            30 -7 43 -21 43 vhcurveto
            -134 -33 rlineto
            7 -23 3 return
          </CharString>
          <CharString index="14">
            -66 callgsubr
            -6 13 17 hvcurveto
            76 52 -97 callgsubr
            return
          </CharString>
          <CharString index="15">
            -31 -37 -45 -41 23 -29 return
          </CharString>
          <CharString index="16">
            -85 callgsubr
            -62 callsubr
            return
          </CharString>
          <CharString index="17">
            -49 callsubr
            73 -21 0 vvcurveto
            55 82 rlineto
            0 -95 66 -62 86 vhcurveto
            -97 -53 -113 12 callgsubr
          </CharString>
          <CharString index="18">
            -40 16 -33 -80 callsubr
            -27 41 -13 35 56 vvcurveto
            return
          </CharString>
          <CharString index="19">
            32 -9 30 -19 21 vhcurveto
            -126 -49 rlineto
            8 -13 23 -38 -62 vvcurveto
            -24 -3 -29 -7 -33 vhcurveto
            return
          </CharString>
          <CharString index="20">
            52 33 -97 callsubr
            return
          </CharString>
          <CharString index="21">
            1 -50 callgsubr
            288 -20 -101 callsubr
            return
          </CharString>
          <CharString index="22">
            rmoveto
            0 114 -51 callsubr
            -46 44 0 vvcurveto
            -116 -40 -102 7 callgsubr
            endchar
          </CharString>
          <CharString index="23">
            403 681 rmoveto
            -253 -118 -29 callsubr
            return
          </CharString>
          <CharString index="24">
            -30 callgsubr
            319 -100 callgsubr
            return
          </CharString>
          <CharString index="25">
            -30 callsubr
            27 -65 callgsubr
            return
          </CharString>
          <CharString index="26">
            19 rmoveto
            158 -27 86 168 -7 callgsubr
            return
          </CharString>
          <CharString index="27">
            20 -23 vhcurveto
            126 50 rlineto
            return
          </CharString>
          <CharString index="28">
            rmoveto
            -19 -69 callsubr
            92 return
          </CharString>
          <CharString index="29">
            -58 callgsubr
            -72 -9 hvcurveto
            62 16 return
          </CharString>
          <CharString index="30">
            -47 callsubr
            endchar
          </CharString>
          <CharString index="31">
            164 15 116 80 113 vvcurveto
            73 -46 50 return
          </CharString>
          <CharString index="32">
            rmoveto
            15 32 18 6 17 hhcurveto
            10 4 -5 -8 -16 -18 -19 -66 -58 hvcurveto
            -65 -57 rlineto
            -99 252 vlineto
            18 99 rlineto
            -116 hlineto
            41 33 rlineto
            64 51 32 37 55 vvcurveto
            62 -56 27 -61 -48 -46 -11 -21 -46 vhcurveto
            endchar
          </CharString>
          <CharString index="33">
            -9 118 -100 -21 399 115 return
          </CharString>
          <CharString index="34">
            268 hmoveto
            38 vlineto
            307 119 121 149 142 vhcurveto
            -96 77 -63 -42 -75 -74 -58 -112 rlinecurve
            return
          </CharString>
          <CharString index="35">
            -44 callsubr
            -77 callgsubr
            return
          </CharString>
          <CharString index="36">
            hhcurveto
            -186 -50 callsubr
            return
          </CharString>
          <CharString index="37">
            rlineto
            250 hlineto
            27 121 rlineto
            -416 hlineto
            return
          </CharString>
          <CharString index="38">
            -4 23 28 70 26 157 return
          </CharString>
          <CharString index="39">
            -73 callsubr
            -60 callsubr
            return
          </CharString>
          <CharString index="40">
            114 hmoveto
            -59 callgsubr
            -401 -362 -73 callgsubr
            return
          </CharString>
          <CharString index="41">
            -45 -8 -74 callgsubr
            90 return
          </CharString>
          <CharString index="42">
            -34 0 vvcurveto
            73 66 rlineto
            0 -84 96 -67 101 vhcurveto
            return
          </CharString>
          <CharString index="43">
            -32 10 -32 -80 callsubr
            return
          </CharString>
          <CharString index="44">
            rmoveto
            0 -104 60 -77 99 vhcurveto
            -70 -52 -19 -58 0 vvcurveto
            80 -94 135 -36 -54 callgsubr
          </CharString>
          <CharString index="45">
            -88 44 -88 135 return
          </CharString>
          <CharString index="46">
            -9 callgsubr
            310 80 rmoveto
            -27 45 -45 71 -31 -67 callgsubr
            return
          </CharString>
          <CharString index="47">
            -52 212 rlineto
            -164 hlineto
            124 -396 rlineto
            -29 -68 -16 -79 -86 vvcurveto
            -40 vlineto
            return
          </CharString>
          <CharString index="48">
            254 118 232 236 return
          </CharString>
          <CharString index="49">
            rlineto
            -2 -11 -2 -11 -9 vvcurveto
            -58 return
          </CharString>
          <CharString index="50">
            -7 callsubr
            160 121 return
          </CharString>
          <CharString index="51">
            -35 -13 118 69 109 106 116 return
          </CharString>
          <CharString index="52">
            rlineto
            -162 hlineto
            return
          </CharString>
          <CharString index="53">
            -97 callsubr
            endchar
          </CharString>
          <CharString index="54">
            rmoveto
            0 53 44 62 48 vhcurveto
            54 -58 57 -79 callgsubr
          </CharString>
          <CharString index="55">
            -43 -25 0 hvcurveto
            -21 -103 rlineto
            0 50 16 44 vhcurveto
            return
          </CharString>
          <CharString index="56">
            80 115 32 vhcurveto
            -17 81 return
          </CharString>
          <CharString index="57">
            -101 -148 -191 return
          </CharString>
          <CharString index="58">
            rmoveto
            0 60 38 68 42 vhcurveto
            60 -59 return
          </CharString>
          <CharString index="59">
            99 108 52 vhcurveto
            -31 77 -54 35 0 vvcurveto
            return
          </CharString>
          <CharString index="60">
            -72 callsubr
            -87 callsubr
            return
          </CharString>
          <CharString index="61">
            -61 -131 -136 -54 callgsubr
          </CharString>
          <CharString index="62">
            -15 124 448 124 return
          </CharString>
          <CharString index="63">
            -97 callsubr
            -14 callgsubr
            return
          </CharString>
          <CharString index="64">
            102 rlineto
            0 -112 -41 return
          </CharString>
          <CharString index="65">
            -26 callsubr
            -103 7 callgsubr
            endchar
          </CharString>
          <CharString index="66">
            523 493 rmoveto
            -16 callsubr
            -7 13 17 hvcurveto
            return
          </CharString>
          <CharString index="67">
            rmoveto
            0 -87 83 -51 114 vhcurveto
            -80 -46 callgsubr
          </CharString>
          <CharString index="68">
            39 46 52 vhcurveto
            33 -55 27 -36 0 vvcurveto
            82 55 rlineto
            0 -42 114 -55 95 vhcurveto
            -83 -61 return
          </CharString>
          <CharString index="69">
            378 rmoveto
            79 -37 45 -88 -79 -57 -39 -88 -41 vhcurveto
            -13 -28 rlineto
            7 52 0 7 15 vvcurveto
            return
          </CharString>
          <CharString index="70">
            547 -21 7 callsubr
            return
          </CharString>
          <CharString index="71">
            hmoveto
            162 hlineto
            return
          </CharString>
          <CharString index="72">
            rmoveto
            -91 callgsubr
            return
          </CharString>
          <CharString index="73">
            170 rmoveto
            -63 -24 callgsubr
            60 63 39 -8 callgsubr
            -60 hvcurveto
            return
          </CharString>
          <CharString index="74">
            rmoveto
            -62 16 callsubr
            39 -15 callgsubr
          </CharString>
          <CharString index="75">
            -55 callgsubr
            50 191 116 return
          </CharString>
          <CharString index="76">
            152 -7 119 557 -20 return
          </CharString>
          <CharString index="77">
            92 100 vvcurveto
            44 -21 return
          </CharString>
          <CharString index="78">
            -229 -237 return
          </CharString>
          <CharString index="79" raw="1">
            ac430a0b   
          </CharString>
          <CharString index="80">
            41 hhcurveto
            19 4 -23 -28 -70 -26 -157 -92 -13 -8 1 3 -10 hvcurveto
            endchar
          </CharString>
          <CharString index="81">
            rmoveto
            0 115 -51 callsubr
            -47 44 0 vvcurveto
            -115 -40 return
          </CharString>
          <CharString index="82">
            -58 0 vvcurveto
            81 -94 134 -36 0 vvcurveto
            return
          </CharString>
          <CharString index="83">
            -105 -21 855 -20 hstem
            return
          </CharString>
          <CharString index="84">
            -82 37 -90 100 return
          </CharString>
          <CharString index="85">
            -20 -18 callsubr
            98 -11 callsubr
            return
          </CharString>
          <CharString index="86">
            -22 47 hhcurveto
            54 43 25 0 hvcurveto
            endchar
          </CharString>
          <CharString index="87">
            -197 -42 callgsubr
            return
          </CharString>
          <CharString index="88">
            152 -344 rlineto
            135 hlineto
            123 654 -155 25 rlineto
            return
          </CharString>
          <CharString index="89">
            hstemhm
            31 156 -99 99 -99 152 return
          </CharString>
          <CharString index="90">
            rmoveto
            0 54 44 62 48 vhcurveto
            53 -58 return
          </CharString>
          <CharString index="91">
            -154 hlineto
            -32 -162 -16 callgsubr
            return
          </CharString>
          <CharString index="92">
            -130 -54 callgsubr
          </CharString>
          <CharString index="93">
            122 rlineto
            return
          </CharString>
          <CharString index="94">
            -27 -50 -41 0 vvcurveto
            58 -109 87 -86 -54 callgsubr
          </CharString>
          <CharString index="95">
            46 -222 133 80 128 return
          </CharString>
          <CharString index="96">
            124 -124 140 return
          </CharString>
          <CharString index="97">
            rmoveto
            0 -50 -16 -44 vhcurveto
            return
          </CharString>
          <CharString index="98">
            21 -21 374 128 return
          </CharString>
          <CharString index="99">
            hlineto
            24 -14 callsubr
            return
          </CharString>
          <CharString index="100">
            13 -21 29 -21 return
          </CharString>
          <CharString index="101">
            108 hstem
            381 170 vstem
            5 callsubr
            return
          </CharString>
          <CharString index="102">
            -25 -14 0 hvcurveto
            -13 -65 rlineto
            0 32 9 22 vhcurveto
            return
          </CharString>
          <CharString index="103">
            -9 callsubr
            2 -20 hstemhm
            88 123 return
          </CharString>
          <CharString index="104">
            32 0 vvcurveto
            -83 -91 -49 -116 -54 callgsubr
          </CharString>
          <CharString index="105">
            92 18 57 120 51 hhcurveto
            return
          </CharString>
          <CharString index="106">
            150 -96 96 -96 156 return
          </CharString>
          <CharString index="107">
            -10 41 hhcurveto
            63 72 33 73 hvcurveto
            hintmask 11101000
            62 return
          </CharString>
          <CharString index="108">
            rlineto
            136 4 callsubr
            -136 hlineto
            return
          </CharString>
          <CharString index="109">
            4 callgsubr
            115 278 118 return
          </CharString>
          <CharString index="110">
            72 -16 41 70 vvcurveto
            return
          </CharString>
          <CharString index="111">
            hlineto
            22 -14 callsubr
            return
          </CharString>
          <CharString index="112">
            7 -36 callsubr
            return
          </CharString>
          <CharString index="113">
            70 -58 58 -58 70 hstemhm
            return
          </CharString>
          <CharString index="114">
            263 -20 hstem
            return
          </CharString>
          <CharString index="115">
            260 117 hstem
            -24 260 rmoveto
            return
          </CharString>
          <CharString index="116">
            19 33 -58 hvcurveto
            -56 -116 rlineto
            -44 return
          </CharString>
          <CharString index="117">
            rlineto
            2 11 10 0 12 hhcurveto
            endchar
          </CharString>
          <CharString index="118">
            -55 callsubr
            endchar
          </CharString>
          <CharString index="119">
            155 vstem
            return
          </CharString>
          <CharString index="120">
            125 rlineto
            -129 hlineto
            hintmask 10100000
            return
          </CharString>
          <CharString index="121">
            -18 -10 13 17 26 16 27 27 return
          </CharString>
          <CharString index="122">
            -56 callgsubr
            53 return
          </CharString>
          <CharString index="123">
            -24 callgsubr
            61 62 return
          </CharString>
          <CharString index="124">
            rmoveto
            0 -58 100 -45 108 vhcurveto
            return
          </CharString>
          <CharString index="125">
            10 15 -20 vhcurveto
            -39 -77 rlineto
            -22 return
          </CharString>
          <CharString index="126">
            37 43 44 -24 26 return
          </CharString>
          <CharString index="127">
            223 -20 hstem
            return
          </CharString>
        <CharString name=".notdef">
          -239 endchar
        </CharString>
        <CharString name="A">
          100 -69 callgsubr
          hstemhm
          hintmask 10110000
          -60 -81 callsubr
          hintmask 01110000
          -83 callgsubr
          56 -388 -84 callgsubr
        </CharString>
        <CharString name="AE">
          348 0 121 -116 -21 177 121 8 121 129 129 hstemhm
          hintmask 10111000
          345 hmoveto
          435 121 -251 hlineto
          35 169 rlineto
          195 hlineto
          27 121 rlineto
          -200 hlineto
          27 137 rlineto
          246 -47 callgsubr
          -502 hlineto
          -436 -642 rlineto
          hintmask 01111000
          159 -43 113 177 rlineto
          157 hlineto
          hintmask 10111000
          -73 132 rmoveto
          67 107 64 118 11 22 rrcurveto
          4 hlineto
          -49 -258 rlineto
          -105 hlineto
          endchar
        </CharString>
        <CharString name="Aacute">
          97 -69 callgsubr
          293 -82 callgsubr
          68 36 -26 callsubr
          -102 7 callgsubr
          39 -508 -84 callgsubr
        </CharString>
        <CharString name="Acircumflex">
          97 -69 callgsubr
          304 -82 callgsubr
          -37 50 rmoveto
          0 61 38 67 42 vhcurveto
          61 -59 73 -28 callgsubr
          144 -522 -84 callgsubr
        </CharString>
        <CharString name="Adieresis">
          97 -69 callgsubr
          90 152 hstemhm
          224 -29 callgsubr
          hintmask 10111110
          -48 -81 callsubr
          hintmask 01111110
          -83 callgsubr
          -9 222 rmoveto
          -53 15 callsubr
          33 -47 callsubr
          -152 -610 -84 callgsubr
        </CharString>
        <CharString name="Agrave">
          97 -69 callgsubr
          295 -82 callgsubr
          123 116 rmoveto
          0 -103 60 -77 99 vhcurveto
          -70 -52 -20 -25 callsubr
          -12 -423 -84 callgsubr
        </CharString>
        <CharString name="Aring">
          97 -57 callsubr
          428 -20 103 72 hstemhm
          285 78 71 79 hintmask 10111110
          -48 -81 callsubr
          hintmask 01111110
          25 -160 rlineto
          166 hlineto
          -126 660 rlineto
          35 25 21 39 45 vvcurveto
          54 -35 41 -61 -78 -54 -60 -72 -29 10 -25 18 -17 vhcurveto
          60 -380 -86 callgsubr
          33 511 rmoveto
          18 10 -13 -18 -26 -17 -26 -26 14 callsubr
          hvcurveto
          endchar
        </CharString>
        <CharString name="Atilde">
          97 -69 callgsubr
          113 15 callgsubr
          hintmask 10111000
          -48 -81 callsubr
          hintmask 01110100
          -83 callgsubr
          272 221 -10 callsubr
          hintmask 10110010
          -54 -37 -49 callgsubr
          hintmask 10111000
          55 37 -22 47 hhcurveto
          53 43 25 0 hvcurveto
          -195 -506 -84 callgsubr
        </CharString>
        <CharString name="B">
          55 -1 109 -87 -21 289 113 165 108 hstemhm
          346 172 -137 170 hintmask 01111000
          7 hmoveto
          46 hlineto
          hintmask 10111000
          13 77 -1 69 hhcurveto
          166 140 79 145 62 -26 40 -69 27 hvcurveto
          hintmask 01110100
          82 36 46 53 81 vvcurveto
          114 -89 39 -109 -34 -37 -5 -4 -29 vhcurveto
          -116 7 rlineto
          135 -384 rmoveto
          hintmask 10111000
          51 23 -23 -52 -71 -62 -35 -60 hvcurveto
          -34 hlineto
          34 181 rlineto
          87 278 rmoveto
          hintmask 10110100
          47 23 -20 -53 -51 -37 -41 -72 hvcurveto
          -25 hlineto
          31 161 rlineto
          3 11 10 1 12 hhcurveto
          endchar
        </CharString>
        <CharString name="C">
          20 -13 122 448 124 hstem
          6 callgsubr
          vstem
          -34 callgsubr
          -144 66 -84 166 86 55 18 24 55 hvcurveto
          -27 115 rlineto
          -22 -55 -33 -13 -48 hhcurveto
          -27 callgsubr
        </CharString>
        <CharString name="Ccedilla">
          20 -227 84 130 122 448 124 hstemhm
          6 callgsubr
          -21 98 -33 109 hintmask 11110100
          -34 callgsubr
          -125 50 -79 121 -19 hvcurveto
          hintmask 11101000
          -11 -16 -7 -15 -15 vvcurveto
          hintmask 11110100
          17 callgsubr
          -22 -25 -21 18 callsubr
          36 34 0 callsubr
          -76 6 27 vvcurveto
          4 0 4 2 5 vhcurveto
          74 3 50 17 51 22 -27 115 rcurveline
          -22 -55 -33 -13 -48 hhcurveto
          hintmask 11110100
          -27 callgsubr
        </CharString>
        <CharString name="D">
          147 -2 127 -104 -21 559 122 hstemhm
          446 173 hintmask 01110000
          7 hmoveto
          61 hlineto
          hintmask 10110000
          -44 callgsubr
          rlineto
          hintmask 01110000
          217 -115 rmoveto
          69 23 -53 -69 hvcurveto
          hintmask 10110000
          -168 -60 -144 -150 vhcurveto
          -42 hlineto
          82 426 11 callgsubr
        </CharString>
        <CharString name="E">
          -64 callgsubr
          hstem
          -99 callgsubr
          endchar
        </CharString>
        <CharString name="Eacute">
          -64 callgsubr
          273 -20 hstem
          -99 callgsubr
          194 36 -42 callsubr
        </CharString>
        <CharString name="Ecircumflex">
          -64 callgsubr
          284 -20 hstem
          -99 callgsubr
          89 50 -49 callsubr
          74 -28 callgsubr
          endchar
        </CharString>
        <CharString name="Edieresis">
          -64 callgsubr
          70 152 hstem
          170 -29 callgsubr
          vstem
          -99 callgsubr
          117 222 -61 callgsubr
        </CharString>
        <CharString name="Egrave">
          -64 callgsubr
          275 -20 hstem
          -99 callgsubr
          249 116 -37 callgsubr
        </CharString>
        <CharString name="Eth">
          150 -2 127 -104 -21 286 122 151 122 hstemhm
          449 173 hintmask 01111000
          -2 286 rmoveto
          67 hlineto
          -55 -286 rlineto
          61 hlineto
          hintmask 10111000
          -44 callgsubr
          -52 -266 rlineto
          -67 hlineto
          336 151 rmoveto
          69 23 -53 -69 -168 -60 -144 -150 hvcurveto
          -42 hlineto
          30 161 rlineto
          115 -8 callsubr
          -115 hlineto
          28 143 11 callgsubr
        </CharString>
        <CharString name="Euro">
          107 -11 120 59 122 28 122 79 124 hstem
          46 318 rmoveto
          53 hlineto
          -2 -9 -2 -11 -8 vvcurveto
          -54 5 callgsubr
          76 hlineto
          -112 14 68 -67 137 hhcurveto
          84 56 13 22 56 hvcurveto
          -31 111 rlineto
          -19 -53 -33 -7 -46 hhcurveto
          -46 -23 24 35 -10 hvcurveto
          113 hlineto
          43 -14 callsubr
          -160 hlineto
          5 28 rlineto
          165 hlineto
          43 -14 callsubr
          -168 hlineto
          45 26 36 34 51 hhcurveto
          36 14 -11 -30 15 hvcurveto
          118 77 rlineto
          52 -23 -36 36 -104 hhcurveto
          -148 -100 -88 -115 -54 hvcurveto
          -68 hlineto
          endchar
        </CharString>
        <CharString name="F">
          -23 21 -21 281 121 146 121 hstem
          5 callsubr
          55 281 rlineto
          203 -47 callgsubr
          -206 hlineto
          29 146 -70 callsubr
          endchar
        </CharString>
        <CharString name="G">
          127 -222 131 79 124 445 124 hstem
          38 173 vstem
          350 -25 rmoveto
          -39 -9 -34 -27 -47 hhcurveto
          -44 -45 14 38 -87 hvcurveto
          -56 -123 rlineto
          -27 52 92 -33 81 hhcurveto
          131 94 89 113 22 hvcurveto
          71 370 rlineto
          -158 hlineto
          -23 -118 rlineto
          -70 -14 -54 -50 -42 hhcurveto
          -49 -20 52 69 132 52 192 124 59 14 -29 -29 11 hvcurveto
          127 58 rlineto
          68 -16 -38 56 -125 hhcurveto
          -264 -117 -29 callsubr
          -144 62 -83 126 63 52 34 55 33 hvcurveto
          endchar
        </CharString>
        <CharString name="H">
          157 21 -21 290 121 258 -20 hstem
          362 -80 callgsubr
          -51 -258 rlineto
          -194 hlineto
          50 258 -55 callsubr
          -130 -669 rlineto
          162 hlineto
          56 290 rlineto
          195 hlineto
          endchar
        </CharString>
        <CharString name="I">
          -197 21 -21 669 -62 callgsubr
          endchar
        </CharString>
        <CharString name="Iacute">
          -20 callsubr
          293 -62 callgsubr
          71 36 -85 callsubr
        </CharString>
        <CharString name="Icircumflex">
          -20 callsubr
          304 -62 callgsubr
          -34 50 -90 callsubr
        </CharString>
        <CharString name="Idieresis">
          -20 callsubr
          90 152 hstem
          46 -29 callgsubr
          vstem
          7 -80 callgsubr
          -7 222 rmoveto
          -96 callgsubr
        </CharString>
        <CharString name="Igrave">
          -20 callsubr
          295 -62 callgsubr
          126 116 -63 callsubr
        </CharString>
        <CharString name="J">
          -204 -202 -21 892 -20 hstem
          7 38 rmoveto
          -13 -68 -34 -44 -83 -38 57 -111 rcurveline
          128 61 80 57 28 146 122 628 rcurveline
          -162 hlineto
          endchar
        </CharString>
        <CharString name="K">
          110 -82 -21 124 -39 callgsubr
          31 -20 hstemhm
          486 156 hintmask 11101000
          7 -80 callgsubr
          340 -14 rmoveto
          6 -17 3 -15 -16 vvcurveto
          -84 -123 -99 -102 -38 vhcurveto
          -10 -22 58 -167 41 -119 140 -181 rlinecurve
          133 70 -88 106 -88 162 -27 98 rlinecurve
          84 36 138 107 126 vvcurveto
          hintmask 11011000
          28 -7 29 -12 21 vhcurveto
          endchar
        </CharString>
        <CharString name="L">
          -64 0 121 548 -20 hstem
          12 hmoveto
          405 121 -219 hlineto
          107 548 11 callsubr
        </CharString>
        <CharString name="M">
          337 18 -21 24 -39 callgsubr
          hstemhm
          hintmask 01100000
          562 hmoveto
          164 hlineto
          75 21 callgsubr
          -139 hlineto
          -234 -413 -11 -19 -17 -37 -12 -24 rlinecurve
          -3 24 -6 38 -3 18 -74 413 rcurveline
          -140 hlineto
          -160 -648 rlineto
          hintmask 10100000
          161 -24 48 261 4 19 7 55 6 43 rlinecurve
          6 -42 10 -57 4 -21 rrcurveto
          hintmask 01100000
          48 -255 rlineto
          127 hlineto
          147 258 12 21 28 56 23 44 rlinecurve
          -10 -44 -10 -55 -4 -25 rrcurveto
          endchar
        </CharString>
        <CharString name="N">
          10 callgsubr
          29 0 callgsubr
          -70 callgsubr
          hintmask 01010000
          -19 callsubr
          endchar
        </CharString>
        <CharString name="Ntilde">
          10 callgsubr
          139 6 callsubr
          hintmask 10100100
          -70 callgsubr
          hintmask 01101000
          -19 callsubr
          -5 189 rmoveto
          0 -33 -9 -22 vhcurveto
          hintmask 10100100
          -31 -11 12 -23 hhcurveto
          -32 -5 callsubr
          hintmask 10110000
          31 11 -12 24 hhcurveto
          32 24 14 0 hvcurveto
          endchar
        </CharString>
        <CharString name="O">
          -45 callsubr
          -103 callsubr
          endchar
        </CharString>
        <CharString name="OE">
          334 -13 134 -121 121 169 121 146 112 7 -20 hstemhm
          6 callgsubr
          hintmask 10110100
          766 hmoveto
          121 -251 vlineto
          34 169 rlineto
          196 -47 callgsubr
          -200 hlineto
          27 137 rlineto
          246 -47 callgsubr
          -409 hlineto
          hintmask 10101100
          4 -19 -23 3 -26 hhcurveto
          -242 -119 -224 -237 -144 66 -84 166 hvcurveto
          hintmask 01110100
          35 30 5 8 27 hvcurveto
          -59 109 rmoveto
          -32 callsubr
          25 19 -2 -6 21 hvcurveto
          -85 -433 rlineto
          -4 -18 -18 -3 -19 hhcurveto
          endchar
        </CharString>
        <CharString name="Oacute">
          -45 callsubr
          261 -20 -103 callsubr
          23 148 -85 callsubr
        </CharString>
        <CharString name="Ocircumflex">
          -45 callsubr
          272 -20 -103 callsubr
          -82 162 -90 callsubr
        </CharString>
        <CharString name="Odieresis">
          -45 callsubr
          58 152 hstemhm
          6 callgsubr
          27 -29 callgsubr
          -146 173 hintmask 11111010
          -107 callsubr
          -55 334 -35 callsubr
          hintmask 11111100
          -52 15 callsubr
          32 -54 callsubr
        </CharString>
        <CharString name="Ograve">
          -45 callsubr
          263 -20 -103 callsubr
          78 228 -63 callsubr
        </CharString>
        <CharString name="Oslash">
          -51 -21 57 124 450 122 62 -20 hstem
          6 callgsubr
          254 176 vstem
          -84 callsubr
          -77 19 -59 43 -40 hvcurveto
          -33 -57 103 -54 37 63 rlineto
          -3 19 21 -3 23 hhcurveto
          -59 callsubr
          76 -19 59 -41 39 hvcurveto
          34 59 -104 57 -39 -67 rlineto
          3 -19 -22 2 -23 hhcurveto
          57 -294 rmoveto
          -127 -7 -55 -151 -101 hhcurveto
          -9 -8 0 2 -8 hvcurveto
          190 323 rlineto
          -256 -172 rmoveto
          129 6 52 168 108 hhcurveto
          12 7 -1 -1 6 hvcurveto
          -191 -326 rlineto
          endchar
        </CharString>
        <CharString name="Otilde">
          -45 callsubr
          107 6 callsubr
          6 callgsubr
          257 173 hintmask 11010110
          -107 callsubr
          146 310 -6 callgsubr
          -31 -5 callsubr
          hintmask 11100110
          31 11 -12 24 hhcurveto
          31 25 14 0 hvcurveto
          endchar
        </CharString>
        <CharString name="P">
          50 21 -21 248 119 200 -6 callsubr
          48 250 rlineto
          -2 18 17 0 19 hhcurveto
          138 142 88 179 121 -89 39 -117 -37 -34 -4 -5 -26 hvcurveto
          2 callgsubr
          -53 -76 -49 -51 -73 hvcurveto
          -19 hlineto
          38 198 10 callsubr
        </CharString>
        <CharString name="Q">
          -258 133 48 94 540 124 hstem
          47 176 240 173 vstem
          533 -53 rmoveto
          -40 -68 -66 -32 -71 hhcurveto
          -33 -36 10 38 -18 hvcurveto
          209 22 186 238 270 vvcurveto
          145 -69 83 -164 -222 -134 -179 -154 -117 88 -65 97 11 19 0 9 30 vhcurveto
          12 112 rlineto
          -55 7 -26 13 46 vvcurveto
          89 60 115 87 70 23 -51 -69 -207 -135 -213 -153 -11 -17 0 6 -24 vhcurveto
          -42 -82 rlineto
          -153 29 100 -46 109 hhcurveto
          91 101 37 47 75 hvcurveto
          endchar
        </CharString>
        <CharString name="R">
          94 -82 -21 124 -21 567 -6 callsubr
          54 277 rlineto
          8 10 -1 8 hhcurveto
          48 -135 45 -94 121 -150 133 70 rcurveline
          -80 95 -95 137 -32 97 rrcurveto
          94 36 68 71 116 vvcurveto
          118 -89 38 -117 -37 -34 -4 -5 -26 vhcurveto
          2 callgsubr
          -48 -67 -48 -40 -74 hvcurveto
          -14 hlineto
          33 173 10 callsubr
        </CharString>
        <CharString name="S">
          13 -13 125 445 124 hstem
          68 174 45 174 vstem
          305 681 rmoveto
          -135 -102 -68 -117 -82 34 -48 63 -47 hvcurveto
          71 -52 rlineto
          31 -22 20 -22 -39 vvcurveto
          -49 -36 -23 -54 -52 -49 26 29 -49 vhcurveto
          -70 -124 rlineto
          -30 56 70 -26 97 hhcurveto
          136 125 68 142 74 -32 53 -52 38 hvcurveto
          -88 65 rlineto
          -28 20 -19 16 38 vvcurveto
          31 25 25 38 36 12 -23 -42 15 vhcurveto
          126 58 rlineto
          66 -21 -37 65 -131 hhcurveto
          endchar
        </CharString>
        <CharString name="T">
          -36 21 -21 548 121 hstem
          47 548 rmoveto
          151 hlineto
          -105 -548 rlineto
          163 hlineto
          106 548 rlineto
          157 -47 callgsubr
          -498 hlineto
          endchar
        </CharString>
        <CharString name="Thorn">
          39 21 -21 132 125 185 116 -116 227 hstemhm
          360 170 hintmask 11101000
          5 callsubr
          25 132 rlineto
          -1 16 18 0 18 hhcurveto
          143 141 87 177 118 -84 45 -122 -14 -17 0 -2 -17 hvcurveto
          hintmask 11011000
          22 113 -55 callsubr
          153 -227 rmoveto
          40 31 -18 -55 -71 -51 -41 -61 hvcurveto
          -29 hlineto
          35 182 rlineto
          2 10 11 1 14 hhcurveto
          endchar
        </CharString>
        <CharString name="U">
          152 -7 119 557 -102 callsubr
          endchar
        </CharString>
        <CharString name="Uacute">
          -31 callsubr
          293 -102 callsubr
          99 36 -85 callsubr
        </CharString>
        <CharString name="Ucircumflex">
          -31 callsubr
          304 -102 callsubr
          -6 50 -90 callsubr
        </CharString>
        <CharString name="Udieresis">
          -31 callsubr
          90 152 hstem
          37 165 22 -29 callgsubr
          -105 callgsubr
          21 222 rmoveto
          -96 callgsubr
        </CharString>
        <CharString name="Ugrave">
          -31 callsubr
          295 -102 callsubr
          154 116 -63 callsubr
        </CharString>
        <CharString name="V">
          92 -42 callgsubr
          29 0 callgsubr
          654 642 rmoveto
          -156 36 -194 -386 -14 -26 -19 -42 -8 -19 rlinecurve
          -12 87 rlineto
          hintmask 11000000
          -55 377 rlineto
          -169 hlineto
          128 -669 rlineto
          138 hlineto
          endchar
        </CharString>
        <CharString name="W">
          353 -42 callgsubr
          28 0 callgsubr
          454 hmoveto
          138 hlineto
          333 640 -156 37 -159 -367 -7 -17 -20 -47 -10 -29 rlinecurve
          30 -1 44 -1 19 vhcurveto
          hintmask 11000000
          -17 359 rlineto
          -148 hlineto
          -151 -347 -8 -18 -20 -50 -8 -28 rlinecurve
          31 -1 43 22 vvcurveto
          -12 347 rlineto
          -169 hlineto
          64 -669 rlineto
          131 hlineto
          152 318 7 14 21 46 10 31 rlinecurve
          -32 4 -43 1 -17 vhcurveto
          endchar
        </CharString>
        <CharString name="X">
          78 13 -21 29 -39 callgsubr
          30 -20 hstemhm
          hintmask 10010000
          104 -8 rmoveto
          145 213 8 12 12 17 12 21 rlinecurve
          7 -20 6 -18 5 -12 rrcurveto
          hintmask 01010000
          72 -205 rlineto
          171 hlineto
          -141 348 214 282 -139 49 -115 -170 -34 -51 -5 16 -8 23 -5 13 rlinecurve
          hintmask 10100000
          -59 159 rlineto
          -170 hlineto
          129 -302 -257 -339 rlineto
          endchar
        </CharString>
        <CharString name="Y">
          -35 -42 callgsubr
          36 -20 hstemhm
          107 161 hintmask 10110000
          -73 callsubr
          hintmask 11010000
          -60 callsubr
          endchar
        </CharString>
        <CharString name="Yacute">
          -35 -42 callgsubr
          293 -20 hstem
          107 161 vstem
          -68 callsubr
          177 705 -42 callsubr
        </CharString>
        <CharString name="Ydieresis">
          -35 -42 callgsubr
          90 152 hstemhm
          107 161 -153 -29 callgsubr
          hintmask 11110100
          -68 callsubr
          92 891 rmoveto
          hintmask 11101100
          -96 callgsubr
        </CharString>
        <CharString name="Z">
          8 0 122 423 124 hstem
          452 hmoveto
          122 -209 vlineto
          -17 -19 -1 -2 -13 hvcurveto
          330 463 rlineto
          87 -420 vlineto
          -24 -124 rlineto
          187 hlineto
          13 22 3 1 12 hvcurveto
          -332 -464 rlineto
          -85 vlineto
          endchar
        </CharString>
        <CharString name="a">
          27 -74 callsubr
          -51 callgsubr
          hintmask 10111000
          -105 callsubr
          hintmask 01111000
          -102 callgsubr
          hintmask 10111000
          -23 callsubr
          vhcurveto
          endchar
        </CharString>
        <CharString name="aacute">
          -98 callsubr
          149 535 rmoveto
          0 97 -76 callgsubr
        </CharString>
        <CharString name="acircumflex">
          27 -74 callsubr
          295 -103 callgsubr
          38 543 -53 callsubr
        </CharString>
        <CharString name="acute">
          -5 -37 callsubr
          180 526 rmoveto
          0 98 -76 callgsubr
        </CharString>
        <CharString name="acuteUC">
          -8 547 -21 237 -20 hstem
          233 526 -85 callsubr
        </CharString>
        <CharString name="acutedotlessi">
          -10 -37 callsubr
          276 526 rmoveto
          0 75 98 82 74 vhcurveto
          -47 59 -59 -3 callsubr
        </CharString>
        <CharString name="adieresis">
          27 -74 callsubr
          66 152 hstemhm
          22 162 -54 159 40 122 -104 159 hintmask 10111010
          -105 callsubr
          hintmask 01111010
          -102 callgsubr
          hintmask 10110101
          -23 callsubr
          vhcurveto
          55 729 rmoveto
          -33 callgsubr
          -95 callgsubr
          endchar
        </CharString>
        <CharString name="ae">
          235 -13 118 -93 -21 183 109 104 118 -3 -20 hstemhm
          22 162 395 153 hintmask 01110110
          159 -9 rmoveto
          55 51 29 71 39 hvcurveto
          hintmask 10110110
          -59 21 50 -45 97 hhcurveto
          96 115 57 0 hvcurveto
          -33 -43 callsubr
          -38 -28 -21 14 33 vhcurveto
          8 2 11 3 vvcurveto
          164 16 115 79 113 vvcurveto
          73 -45 50 -113 -51 -45 -13 -22 -37 vhcurveto
          hintmask 01101110
          20 -40 -45 12 -47 -71 callsubr
          -23 callsubr
          hvcurveto
          48 118 rmoveto
          -19 -4 23 28 hvcurveto
          hintmask 10110110
          70 26 157 92 14 -22 callgsubr
          vhcurveto
          -78 callgsubr
          343 280 -78 callsubr
          32 44 34 hhcurveto
          endchar
        </CharString>
        <CharString name="agrave">
          -98 callsubr
          223 601 -40 callsubr
        </CharString>
        <CharString name="ampersand">
          59 -11 132 357 117 hstemhm
          -3 159 -28 149 hintmask 11010000
          471 502 rmoveto
          57 -27 -36 36 -75 hhcurveto
          -129 -76 -85 -98 -17 2 -16 4 -17 hvcurveto
          hintmask 11100000
          -84 -46 -53 -60 -112 vvcurveto
          -101 75 -54 92 77 65 25 40 54 vhcurveto
          18 -19 28 -28 21 -20 96 98 rcurveline
          -18 18 -29 30 -18 20 29 37 23 40 20 38 -100 70 rcurveline
          -18 -27 -22 -31 -22 -29 rrcurveto
          hintmask 11010000
          -56 64 -35 56 50 vvcurveto
          37 28 20 34 27 15 -16 -19 10 vhcurveto
          -121 -295 rmoveto
          -17 -22 -22 -10 -20 hhcurveto
          hintmask 11100000
          -27 -23 15 35 32 10 25 20 25 hvcurveto
          23 -35 29 -35 32 -35 rrcurveto
          endchar
        </CharString>
        <CharString name="apostrophe">
          -189 464 -21 313 -20 hstem
          144 12 callsubr
          144 665 rmoveto
          -45 -8 -43 -77 -49 vhcurveto
          52 -85 rlineto
          98 51 -21 callgsubr
          -26 vvcurveto
          endchar
        </CharString>
        <CharString name="aring">
          25 -74 callsubr
          45 71 83 72 hstemhm
          31 161 38 79 28 123 -81 79 hintmask 1011111100000000
          216 109 rmoveto
          -20 -69 callsubr
          93 13 -22 callgsubr
          hvcurveto
          -10 -45 rlineto
          -97 -22 -52 -132 -40 hhcurveto
          -49 -118 rmoveto
          62 56 36 91 42 hvcurveto
          13 callgsubr
          -2 -27 -1 -19 -16 vvcurveto
          hintmask 0111111100000000
          -40 16 -33 20 -23 vhcurveto
          127 50 rlineto
          -28 41 -12 35 56 vvcurveto
          24 3 29 6 32 vhcurveto
          43 218 -81 5 rlineto
          17 -37 -33 7 -44 hhcurveto
          -185 -50 callsubr
          hvcurveto
          hintmask 1011111010000000
          -82 36 -90 100 vhcurveto
          185 710 rmoveto
          17 10 -13 -18 hvcurveto
          hintmask 1011111100000000
          -26 -17 -26 -25 14 callsubr
          vhcurveto
          -27 -154 rmoveto
          hintmask 1011111010000000
          79 54 60 71 54 -34 41 -61 -79 -54 -60 -72 -54 34 -40 61 hvcurveto
          endchar
        </CharString>
        <CharString name="asciicircum">
          17 290 -21 401 -20 hstem
          473 307 rmoveto
          -106 363 rlineto
          -94 hlineto
          -236 -342 116 -59 106 170 12 18 10 22 5 15 rlinecurve
          2 -16 4 -25 3 -12 37 -151 rcurveline
          endchar
        </CharString>
        <CharString name="asciitilde">
          34 227 117 -57 57 -57 117 hstemhm
          hintmask 01000000
          194 404 rmoveto
          -73 -47 -50 -46 -37 hvcurveto
          58 -67 rlineto
          38 37 18 8 31 hhcurveto
          hintmask 10000000
          59 20 -60 85 hhcurveto
          72 48 49 46 36 hvcurveto
          -57 68 rlineto
          -38 -38 -18 -8 -30 hhcurveto
          hintmask 00100000
          -59 -20 60 -85 hhcurveto
          endchar
        </CharString>
        <CharString name="asterisk">
          -28 329 -21 372 -20 hstem
          72 502 rmoveto
          97 -37 -90 -69 99 -87 82 90 53 -91 114 72 -71 84 118 33 -36 127 -106 -49 30 92 -133 13 -15 -109 -92 53 rlineto
          endchar
        </CharString>
        <CharString name="at">
          376 -186 117 61 112 246 111 62 116 hstem
          12 131 62 157 141 116 107 131 vstem
          636 262 rmoveto
          34 172 -80 4 rlineto
          16 -36 -30 7 -41 hhcurveto
          -180 -98 -137 -179 -73 35 -80 98 60 58 34 89 39 hvcurveto
          13 29 rlineto
          -2 -19 -3 -17 -17 vvcurveto
          -57 32 -42 56 169 97 156 215 189 -130 87 -188 -279 -248 -193 -341 -214 138 -77 164 113 98 47 0 vhcurveto
          -31 102 rlineto
          0 -80 -32 -77 -144 -50 91 100 246 181 155 190 142 70 -58 -124 -89 -43 -148 -45 -18 -1 21 21 36 9 40 8 40 vhcurveto
          -251 -156 rmoveto
          -19 -4 16 21 64 25 143 89 13 7 -1 -2 7 hvcurveto
          -8 -35 rlineto
          -87 -22 -49 -119 -39 hhcurveto
          endchar
        </CharString>
        <CharString name="atilde">
          27 -74 callsubr
          89 112 -90 90 -90 112 -51 callgsubr
          hintmask 10110011
          -105 callsubr
          hintmask 01110011
          -102 callgsubr
          hintmask 10101011
          -23 callsubr
          vhcurveto
          336 728 -10 callsubr
          hintmask 10100111
          -55 -37 22 -47 hhcurveto
          -53 -52 callsubr
          hintmask 10110011
          54 37 -21 callsubr
        </CharString>
        <CharString name="b">
          11 -9 115 278 118 20 callsubr
          332 161 vstem
          493 330 rmoveto
          81 -37 91 -100 -53 -46 -30 -59 -36 vhcurveto
          23 56 17 48 9 45 32 163 rcurveline
          -158 -20 -127 -657 rlineto
          -33 65 62 -24 63 hhcurveto
          185 101 148 191 hvcurveto
          -185 54 rmoveto
          19 5 -23 -28 -70 -26 -157 -93 -13 -7 1 3 -10 hvcurveto
          10 41 rlineto
          108 24 51 125 40 hhcurveto
          endchar
        </CharString>
        <CharString name="backslash">
          -63 -24 callsubr
          246 729 rmoveto
          -148 hlineto
          149 -855 rlineto
          145 hlineto
          endchar
        </CharString>
        <CharString name="bar">
          -144 -24 callsubr
          180 729 rmoveto
          -168 -855 rlineto
          148 hlineto
          167 855 rlineto
          endchar
        </CharString>
        <CharString name="braceleft">
          -105 -192 139 646 131 hstemhm
          25 162 -111 157 hintmask 11100000
          40 -2 rmoveto
          -11 -42 -4 -20 -24 vvcurveto
          -71 58 -33 70 25 38 5 4 24 vhcurveto
          28 143 rlineto
          -7 -19 -23 -6 -17 hhcurveto
          -13 -9 9 12 7 5 14 3 11 hvcurveto
          27 110 rlineto
          hintmask 11010000
          5 20 6 28 20 vvcurveto
          34 -19 27 -33 21 vhcurveto
          73 41 22 51 6 54 16 141 rcurveline
          17 2 13 29 31 hhcurveto
          11 16 -3 -6 16 hvcurveto
          25 127 rlineto
          7 -31 -21 6 -29 hhcurveto
          -89 -84 -35 -107 -12 hvcurveto
          -22 -176 -7 -60 -43 -21 -44 -13 rlinecurve
          -103 vlineto
          43 -7 3 -25 -20 vvcurveto
          -13 -3 -18 -3 -10 vhcurveto
          endchar
        </CharString>
        <CharString name="braceright">
          -107 -192 131 645 140 hstemhm
          108 157 -111 163 hintmask 11010000
          302 534 rmoveto
          10 41 5 21 24 vvcurveto
          71 -59 33 -70 -25 -38 -5 -4 -24 vhcurveto
          -27 -143 rlineto
          7 19 22 5 18 hhcurveto
          13 8 -8 -12 -8 -5 -14 -2 -10 hvcurveto
          -28 -110 rlineto
          hintmask 11100000
          -5 -20 -6 -28 -20 vvcurveto
          -34 19 -27 34 -22 vhcurveto
          -73 -40 -22 -52 -6 -54 -17 -140 rcurveline
          -17 -2 -12 -29 -31 hhcurveto
          -11 -17 3 6 -16 hvcurveto
          -24 -128 rlineto
          -6 30 21 -6 30 hhcurveto
          89 83 35 106 13 hvcurveto
          21 177 7 59 44 22 44 13 rlinecurve
          103 vlineto
          -43 7 -4 24 20 vvcurveto
          13 3 19 3 10 vhcurveto
          endchar
        </CharString>
        <CharString name="bracketleft">
          -90 9 callgsubr
          30 -186 rmoveto
          262 4 callsubr
          -111 hlineto
          129 662 rlineto
          108 -8 callsubr
          -257 hlineto
          endchar
        </CharString>
        <CharString name="bracketright">
          -70 9 callgsubr
          374 720 rmoveto
          -262 hlineto
          -22 -122 rlineto
          111 hlineto
          -129 -662 rlineto
          -108 5 callgsubr
          257 hlineto
          endchar
        </CharString>
        <CharString name="brokenbar">
          -145 -24 callsubr
          180 729 rmoveto
          -76 -388 rlineto
          148 hlineto
          75 388 rlineto
          -240 -469 rmoveto
          -75 -386 rlineto
          148 hlineto
          75 386 rlineto
          endchar
        </CharString>
        <CharString name="bullet">
          -184 189 235 hstem
          36 245 vstem
          166 424 rmoveto
          -81 -49 -58 -69 -63 36 -45 78 81 50 57 68 68 -37 42 -78 hvcurveto
          endchar
        </CharString>
        <CharString name="c">
          -102 -13 118 280 120 hstem
          22 161 vstem
          327 129 rmoveto
          -6 -18 -56 -18 -23 hhcurveto
          -28 -19 15 45 87 33 133 67 23 3 -20 -16 6 hvcurveto
          114 44 rlineto
          60 -14 -30 52 -81 hhcurveto
          -68 callgsubr
          -62 callsubr
          80 78 35 1 3 hvcurveto
          endchar
        </CharString>
        <CharString name="ccedilla">
          -102 -227 84 137 111 280 120 hstemhm
          22 161 -55 98 -32 109 hintmask 11110100
          327 129 rmoveto
          -6 -19 -55 -18 -23 hhcurveto
          -28 -19 15 45 87 33 133 67 23 3 -20 -16 6 hvcurveto
          114 44 rlineto
          60 -14 -30 52 -81 hhcurveto
          -68 callgsubr
          -75 32 -75 94 -19 hvcurveto
          hintmask 11101000
          -11 -17 -9 -15 -16 vvcurveto
          hintmask 11110100
          -41 66 0 -31 vvcurveto
          -11 -11 -6 -21 -26 -20 18 callsubr
          35 35 0 callsubr
          -77 6 27 vvcurveto
          4 2 6 2 5 vhcurveto
          69 7 59 25 4 2 rrcurveto
          endchar
        </CharString>
        <CharString name="cedilla">
          -17 -227 84 -84 237 hstemhm
          191 98 -33 109 hintmask 01100000
          225 10 rmoveto
          -18 -22 -16 -21 -21 vvcurveto
          hintmask 10010000
          17 callgsubr
          -21 -26 -21 10 15 -20 vhcurveto
          -38 -77 rlineto
          -22 35 34 -10 42 hhcurveto
          63 71 33 73 hvcurveto
          hintmask 01100000
          62 -76 6 27 vvcurveto
          8 5 14 11 14 vhcurveto
          endchar
        </CharString>
        <CharString name="cent">
          51 -39 -21 696 -20 hstem
          47 157 vstem
          286 548 rmoveto
          -154 -19 -85 -137 -156 vvcurveto
          -85 40 -90 122 -7 vhcurveto
          -17 -114 rlineto
          109 hlineto
          18 116 71 9 42 26 21 20 rlinecurve
          -37 82 -21 -16 -24 -16 -37 -7 rlinecurve
          46 294 20 -5 7 -16 8 -21 rlinecurve
          98 43 -11 56 -32 37 -75 7 rlinecurve
          14 87 rlineto
          -109 hlineto
          -96 -399 rmoveto
          60 13 109 52 34 vhcurveto
          -42 -276 rlineto
          -17 14 -6 28 31 vvcurveto
          endchar
        </CharString>
        <CharString name="circumUC">
          -40 569 -21 234 -20 hstem
          168 548 -90 callsubr
        </CharString>
        <CharString name="circumdotlessi">
          -8 547 -21 264 -20 hstem
          215 526 rmoveto
          0 39 -39 callsubr
          -121 -140 -54 callgsubr
        </CharString>
        <CharString name="circumflex">
          -5 -37 callsubr
          135 526 -53 callgsubr
        </CharString>
        <CharString name="colon">
          -166 -13 183 149 183 hstemhm
          35 190 -123 191 hintmask 11100000
          136 -34 callsubr
          67 332 rmoveto
          hintmask 11010000
          -63 -38 -45 -54 -49 28 -35 61 62 40 45 52 53 -29 33 -61 hvcurveto
          endchar
        </CharString>
        <CharString name="comma">
          -224 -127 -19 callgsubr
          25 12 callsubr
          25 74 rmoveto
          -89 callgsubr
          endchar
        </CharString>
        <CharString name="copyright">
          253 -14 97 60 102 194 106 52 96 hstem
          27 109 75 140 269 109 vstem
          27 261 rmoveto
          -159 105 -116 177 241 179 184 249 160 -105 114 -177 -241 -179 -182 -250 vhcurveto
          402 336 rmoveto
          121 70 -70 -131 -182 -143 -131 -151 -118 -72 70 132 196 161 116 132 hvcurveto
          27 -335 rmoveto
          -11 -24 -17 -6 -23 hhcurveto
          -28 -13 22 34 64 24 74 51 17 8 -8 -13 8 hvcurveto
          73 67 rlineto
          35 -11 -34 25 -55 hhcurveto
          -137 -84 -125 -133 -80 36 -64 101 65 51 27 9 16 hvcurveto
          endchar
        </CharString>
        <CharString name="currency">
          143 8 -21 71 106 223 111 71 -20 hstem
          81 129 199 131 vstem
          536 569 rmoveto
          -91 -90 rlineto
          12 -27 -33 7 -35 hhcurveto
          -38 -37 -8 -15 -35 hvcurveto
          -57 94 -105 -72 69 -87 rlineto
          -40 -46 -26 -61 -75 vvcurveto
          -28 5 -25 10 -22 vhcurveto
          -94 -72 84 -94 90 88 rlineto
          -11 27 31 -6 36 hhcurveto
          37 36 6 15 34 hvcurveto
          57 -92 104 72 -67 84 rlineto
          42 45 27 63 77 vvcurveto
          27 -6 25 -9 21 vhcurveto
          95 74 rlineto
          -335 -311 rmoveto
          -56 -19 36 45 72 57 70 67 57 18 -35 -45 -72 -57 -71 -67 hvcurveto
          endchar
        </CharString>
        <CharString name="d">
          14 -74 callsubr
          223 -20 -51 callgsubr
          hintmask 10111100
          552 725 rmoveto
          -156 -20 -40 -207 rlineto
          3 -17 -16 1 -14 -71 callsubr
          -23 callsubr
          -87 callgsubr
          hintmask 01111100
          -89 callsubr
          16 1 19 4 20 vhcurveto
          hintmask 10111100
          -249 -116 -100 callsubr
          endchar
        </CharString>
        <CharString name="degree">
          -242 463 80 95 80 hstem
          42 89 80 89 vstem
          180 638 rmoveto
          20 11 -15 -21 -29 -18 -30 -30 -21 -11 14 20 30 19 31 30 hvcurveto
          -30 -175 rmoveto
          89 61 68 80 61 -39 46 -69 -88 -62 -68 -80 -62 39 -45 69 hvcurveto
          endchar
        </CharString>
        <CharString name="dieresis">
          24 568 152 hstem
          80 -29 callgsubr
          vstem
          164 720 -61 callgsubr
        </CharString>
        <CharString name="dieresisdotlessi">
          23 580 150 hstem
          192 158 24 156 vstem
          275 730 rmoveto
          -52 -11 callgsubr
          34 19 callsubr
          -51 hvcurveto
          181 hmoveto
          -51 -11 callgsubr
          32 37 43 44 -23 26 -51 hvcurveto
          endchar
        </CharString>
        <CharString name="divide">
          -24 60 149 48 122 45 150 hstemhm
          131 159 -102 158 hintmask 11101000
          272 574 rmoveto
          -52 -32 -37 -44 -41 24 -28 51 52 31 36 43 44 -23 27 -51 hvcurveto
          -56 -365 rmoveto
          hintmask 11110000
          -53 -32 -36 -45 -40 24 -28 51 52 32 36 43 43 -24 27 -50 hvcurveto
          -194 48 rmoveto
          409 4 callsubr
          -408 hlineto
          endchar
        </CharString>
        <CharString name="dollar">
          30 -83 217 355 205 hstem
          89 162 26 162 vstem
          268 694 rmoveto
          -20 -88 rlineto
          -94 -18 -65 -59 -89 vvcurveto
          -71 34 -37 59 -41 vhcurveto
          54 -37 rlineto
          32 -21 9 -23 -22 vvcurveto
          -30 -30 -24 -43 -30 -38 20 46 -18 vhcurveto
          -116 -58 19 -55 45 -51 70 -19 rlinecurve
          -14 -100 rlineto
          117 hlineto
          18 97 rlineto
          101 18 81 65 101 vvcurveto
          64 -22 40 -55 40 vhcurveto
          -65 47 rlineto
          -24 16 -22 18 25 vvcurveto
          25 24 16 33 39 8 -33 -20 12 vhcurveto
          114 59 -14 51 -29 45 -69 16 rlinecurve
          17 87 rlineto
          endchar
        </CharString>
        <CharString name="dotlessi">
          -207 -7 122 375 -100 callgsubr
          endchar
        </CharString>
        <CharString name="e">
          -56 callsubr
          -106 callsubr
          endchar
        </CharString>
        <CharString name="eacute">
          -94 callgsubr
          32 141 rmoveto
          0 98 -76 callgsubr
        </CharString>
        <CharString name="ecircumflex">
          -56 callsubr
          296 -20 -106 callsubr
          -70 149 -53 callgsubr
        </CharString>
        <CharString name="edieresis">
          -56 callsubr
          67 152 hstemhm
          22 159 -38 159 7 153 -101 158 hintmask 11111010
          -107 callgsubr
          -53 335 rmoveto
          hintmask 11110101
          -96 callgsubr
        </CharString>
        <CharString name="egrave">
          -94 callgsubr
          100 207 -40 callgsubr
        </CharString>
        <CharString name="eight">
          6 -16 118 422 113 hstemhm
          9 158 -86 158 50 162 -121 159 hintmask 11101000
          196 -16 rmoveto
          hintmask 11010100
          124 131 69 137 54 -36 56 -52 34 hvcurveto
          66 38 60 44 92 vvcurveto
          82 -71 47 -95 vhcurveto
          hintmask 11101000
          -135 -107 -73 -110 -63 35 -34 40 -28 hvcurveto
          -72 -41 -75 -56 -103 vvcurveto
          -103 83 -42 104 vhcurveto
          -29 165 rmoveto
          46 39 32 42 27 vhcurveto
          25 -27 16 -30 -23 vvcurveto
          -44 -34 -28 -35 -19 -34 12 35 vhcurveto
          163 338 rmoveto
          -27 -19 -29 -43 -25 vhcurveto
          -16 15 -13 16 22 vvcurveto
          37 21 28 34 vhcurveto
          hintmask 11010100
          23 13 -16 -21 hvcurveto
          endchar
        </CharString>
        <CharString name="emdash">
          159 8 callsubr
          673 3 callgsubr
          -671 hlineto
          endchar
        </CharString>
        <CharString name="endash">
          -24 8 callsubr
          490 3 callgsubr
          -488 hlineto
          endchar
        </CharString>
        <CharString name="equal">
          30 194 122 -34 122 hstemhm
          hintmask 01000000
          76 282 rmoveto
          1 hlineto
          hintmask 10000000
          -16 -88 rlineto
          374 hlineto
          23 -14 callsubr
          -1 hlineto
          hintmask 01000000
          16 88 rlineto
          -374 hlineto
          endchar
        </CharString>
        <CharString name="eth">
          -3 -50 callgsubr
          221 -20 -36 callgsubr
          164 vstem
          485 373 rmoveto
          78 -14 69 -24 54 vhcurveto
          76 19 -25 92 -99 -28 -20 26 -26 25 -23 18 rlinecurve
          -96 -80 26 -30 -61 -17 27 -90 94 29 14 -19 11 -19 8 -16 rlinecurve
          14 -22 -24 7 -18 hhcurveto
          -166 -101 -158 -184 -62 callsubr
          218 66 200 186 hvcurveto
          -202 20 -99 callsubr
          endchar
        </CharString>
        <CharString name="exclam">
          -178 -13 183 499 -20 hstem
          21 190 vstem
          71 221 rmoveto
          139 hlineto
          112 448 rlineto
          -167 hlineto
          -34 -499 -33 callsubr
        </CharString>
        <CharString name="exclamdown">
          -178 -161 -21 499 182 hstem
          88 191 vstem
          229 266 rmoveto
          -139 hlineto
          -113 -448 rlineto
          167 hlineto
          35 499 rmoveto
          62 38 45 53 49 -28 35 -61 -62 -40 -45 -52 -53 30 -32 61 hvcurveto
          endchar
        </CharString>
        <CharString name="f">
          -154 -201 -21 596 116 116 116 hstem
          106 147 vstem
          445 615 rmoveto
          69 -19 -40 38 -88 hhcurveto
          -106 -86 -45 -103 -20 7 -40 15 -24 hvcurveto
          -102 -116 75 hlineto
          -65 -337 -14 -71 -45 -40 -85 -40 rlinecurve
          57 -108 133 62 78 60 28 139 rlinecurve
          66 335 rlineto
          103 hlineto
          20 116 rlineto
          -115 hlineto
          -6 26 -3 25 19 vvcurveto
          33 16 13 21 19 6 -23 -23 7 vhcurveto
          endchar
        </CharString>
        <CharString name="five">
          -14 -6 121 180 118 87 126 hstem
          275 170 vstem
          181 115 rmoveto
          -52 -40 9 callsubr
          72 65 -13 70 hhcurveto
          166 97 82 168 96 -59 73 -96 -21 -22 -4 -7 -23 hvcurveto
          31 98 rlineto
          203 hlineto
          25 126 rlineto
          -342 hlineto
          -93 -311 50 -45 rlineto
          18 46 35 7 33 hhcurveto
          43 20 -27 -56 -69 -38 -28 -56 hvcurveto
          endchar
        </CharString>
        <CharString name="four">
          28 21 -21 160 122 349 -20 hstem
          298 422 rmoveto
          -28 -140 rlineto
          -95 hlineto
          224 349 rlineto
          -156 hlineto
          -247 -391 rlineto
          -80 250 vlineto
          -30 -160 rlineto
          158 hlineto
          31 160 rlineto
          72 -8 callsubr
          -72 hlineto
          33 168 rlineto
          endchar
        </CharString>
        <CharString name="fraction">
          -104 21 -21 587 -20 hstem
          -73 hmoveto
          -59 callgsubr
          endchar
        </CharString>
        <CharString name="g">
          35 -222 133 80 118 278 115 hstemhm
          31 161 140 -11 callsubr
          hintmask 11110100
          432 478 rmoveto
          14 -32 -33 10 -50 hhcurveto
          -185 -50 callsubr
          -82 36 -90 100 62 56 36 91 42 hvcurveto
          13 29 rlineto
          -3 -31 -5 -32 -22 -93 callgsubr
          hintmask 11111000
          3 callsubr
          42 16 75 40 200 vhcurveto
          -296 -364 rmoveto
          -20 -69 callsubr
          93 12 8 -2 -2 9 hvcurveto
          -7 -32 rlineto
          -110 -24 -53 -132 -40 hhcurveto
          endchar
        </CharString>
        <CharString name="germandbls">
          79 -202 -21 216 120 491 121 hstemhm
          279 156 -52 163 -127 127 -127 159 hintmask 11100100
          21 48 rmoveto
          -16 -83 -41 -40 -87 -40 56 -108 rcurveline
          123 61 92 57 30 155 85 443 rcurveline
          72 14 32 39 61 hhcurveto
          30 19 -13 -24 hvcurveto
          hintmask 11110000
          -62 -140 -19 -132 vvcurveto
          hintmask 11101000
          -107 104 -11 -69 vvcurveto
          -34 -22 -20 -41 -18 -23 4 16 -25 vhcurveto
          -55 -105 rlineto
          -26 37 54 -9 44 hhcurveto
          125 87 90 106 hvcurveto
          hintmask 11110000
          114 -111 21 65 vvcurveto
          hintmask 11100010
          64 143 16 134 vvcurveto
          67 -44 55 -126 -194 -83 -101 -145 -28 vhcurveto
          endchar
        </CharString>
        <CharString name="grave">
          -5 -37 callsubr
          380 592 -40 callgsubr
        </CharString>
        <CharString name="graveUC">
          -4 546 -21 240 -20 hstem
          431 606 -37 callgsubr
        </CharString>
        <CharString name="gravedotlessi">
          16 -37 callsubr
          446 581 17 callsubr
          -74 -13 callsubr
        </CharString>
        <CharString name="greater">
          -49 94 -21 437 -20 hstem
          51 388 rmoveto
          156 -79 12 -6 25 -11 13 -4 rlinecurve
          -15 -4 -24 -9 -13 -6 -188 -76 rcurveline
          46 -120 375 171 rlineto
          93 vlineto
          -315 173 rlineto
          endchar
        </CharString>
        <CharString name="guillemotleft">
          128 -61 callsubr
          339 65 rmoveto
          -27 45 -46 71 -30 -67 callgsubr
          endchar
        </CharString>
        <CharString name="guillemotright">
          128 -9 callgsubr
          311 407 rmoveto
          27 -46 45 -71 30 -48 -149 -147 rcurveline
          65 -80 41 31 122 94 94 102 rlinecurve
          -62 100 -131 130 0 vvcurveto
          -338 -65 -38 callgsubr
          -62 100 -130 130 -54 callgsubr
        </CharString>
        <CharString name="guilsinglleft">
          -128 -61 callsubr
          endchar
        </CharString>
        <CharString name="guilsinglright">
          -128 -9 callgsubr
          55 407 -38 callgsubr
          -61 100 -131 130 -54 callgsubr
        </CharString>
        <CharString name="h">
          38 -9 callsubr
          223 -20 hstemhm
          300 -1 callsubr
          hintmask 11101000
          311 725 rmoveto
          -155 -20 -139 -705 rlineto
          155 hlineto
          32 162 rlineto
          -2 callsubr
          17 7 -13 -18 hvcurveto
          hintmask 11110000
          -82 -54 -72 callgsubr
          hintmask 11100100
          -10 callgsubr
          79 -38 45 -87 -79 -51 -35 -111 -57 vhcurveto
          34 82 39 72 12 68 rrcurveto
          endchar
        </CharString>
        <CharString name="hyphen">
          -99 259 117 hstem
          40 259 rmoveto
          303 hlineto
          22 117 rlineto
          -302 hlineto
          endchar
        </CharString>
        <CharString name="i">
          -208 -23 callgsubr
          85 169 hstemhm
          27 220 -130 177 hintmask 11101000
          211 724 rmoveto
          -58 -36 -5 callgsubr
          -57 hvcurveto
          -73 -731 rmoveto
          hintmask 11110000
          -104 callsubr
          endchar
        </CharString>
        <CharString name="iacute">
          -83 callsubr
          56 533 rmoveto
          0 75 98 82 74 vhcurveto
          -48 59 -58 -3 callsubr
        </CharString>
        <CharString name="icircumflex">
          -30 callgsubr
          318 -100 callgsubr
          -21 531 rmoveto
          0 38 -39 callsubr
          -120 -140 -54 callgsubr
        </CharString>
        <CharString name="idieresis">
          -30 callgsubr
          110 150 hstemhm
          27 220 -209 157 25 156 hintmask 11110000
          -101 callgsubr
          -17 737 rmoveto
          hintmask 11101100
          -52 -11 callgsubr
          33 19 callsubr
          -50 hvcurveto
          181 hmoveto
          -52 -30 -36 -44 -41 23 -29 49 52 32 19 callsubr
          -50 hvcurveto
          endchar
        </CharString>
        <CharString name="igrave">
          -83 callsubr
          123 588 17 callsubr
          -73 -13 callsubr
        </CharString>
        <CharString name="j">
          -247 -202 -21 713 65 0 169 hstemhm
          110 177 hintmask 11010000
          95 490 rmoveto
          -88 -444 -17 -84 -38 -37 -90 -40 rlinecurve
          56 -108 142 69 67 40 31 153 rlinecurve
          89 451 rlineto
          hintmask 10110000
          -44 234 rmoveto
          -58 -35 -5 callgsubr
          -58 hvcurveto
          endchar
        </CharString>
        <CharString name="k">
          67 -78 -21 120 -21 382 120 20 callsubr
          352 164 vstem
          202 160 rmoveto
          93 18 43 129 62 hhcurveto
          21 6 -10 -19 -48 -81 -37 -21 -7 hvcurveto
          -2 -17 32 -124 58 -124 103 -95 rlinecurve
          122 66 -74 85 -55 78 -30 88 rlinecurve
          0 112 49 114 vvcurveto
          79 -50 42 -73 -73 -59 -29 -85 -51 vhcurveto
          25 63 36 68 11 59 28 147 rcurveline
          -155 -20 -138 -705 rlineto
          154 hlineto
          endchar
        </CharString>
        <CharString name="l">
          -202 -4 119 610 -20 hstem
          22 233 vstem
          255 127 rmoveto
          -1 -4 -38 -11 -15 hhcurveto
          -13 -2 -57 callgsubr
          108 566 -156 -20 -113 -582 -58 callsubr
          37 -38 74 62 60 24 0 vhcurveto
          endchar
        </CharString>
        <CharString name="less">
          -49 94 -21 437 -20 hstem
          404 195 rmoveto
          -156 79 -12 6 -25 11 -13 4 rlinecurve
          15 4 24 10 13 5 188 76 rcurveline
          -46 120 -375 -171 rlineto
          -92 vlineto
          315 -174 rlineto
          endchar
        </CharString>
        <CharString name="logicalnot">
          22 168 244 -122 122 hstemhm
          hintmask 01000000
          42 290 rmoveto
          291 hlineto
          hintmask 10000000
          -22 -122 rlineto
          127 hlineto
          46 244 rlineto
          -419 hlineto
          endchar
        </CharString>
        <CharString name="m">
          298 -4 callsubr
          140 150 59 150 -97 97 -97 157 hintmask 11011001
          770 378 rmoveto
          79 -39 45 -86 -64 -44 -28 -66 -36 vhcurveto
          62 -10 -38 32 -71 hhcurveto
          -77 -48 -40 -87 -40 hvcurveto
          -13 -28 rlineto
          5 42 2 17 15 vvcurveto
          hintmask 10111100
          -88 callgsubr
          32 167 rlineto
          hintmask 11011010
          91 18 49 116 47 hhcurveto
          17 6 -13 -18 -23 -4 -31 -6 -33 hvcurveto
          -51 -256 rlineto
          155 hlineto
          32 168 rlineto
          90 18 48 116 48 hhcurveto
          16 6 -13 -18 hvcurveto
          hintmask 11011100
          -82 -53 -72 callgsubr
          hintmask 11011001
          -10 callgsubr
          endchar
        </CharString>
        <CharString name="macron">
          -9 603 117 hstem
          72 603 rmoveto
          340 hlineto
          16 117 rlineto
          -337 hlineto
          endchar
        </CharString>
        <CharString name="minus">
          -53 240 122 hstem
          89 240 rmoveto
          346 hlineto
          18 -14 callsubr
          -344 hlineto
          endchar
        </CharString>
        <CharString name="multiply">
          22 100 -21 426 -20 hstem
          418 505 rmoveto
          -140 -120 -91 117 -104 -85 93 -119 -144 -123 77 -96 144 123 95 -122 104 85 -97 124 138 119 rlineto
          endchar
        </CharString>
        <CharString name="n">
          48 -4 callsubr
          98 -1 callsubr
          hintmask 11010010
          519 -38 callsubr
          hintmask 10111000
          -88 callgsubr
          31 162 rlineto
          hintmask 11010100
          -2 callsubr
          18 6 -13 -18 hvcurveto
          hintmask 11011000
          -82 -54 -72 callgsubr
          hintmask 11010010
          -10 callgsubr
          endchar
        </CharString>
        <CharString name="nine">
          -7 -16 125 91 117 197 123 hstem
          24 161 125 162 vstem
          17 14 rmoveto
          -20 36 45 -10 48 hhcurveto
          232 94 202 241 152 -77 58 -122 -147 -102 -114 -179 -75 39 -69 101 48 41 21 24 32 hvcurveto
          -76 -22 -40 -60 -64 hhcurveto
          -35 -26 4 12 -33 hvcurveto
          167 192 rmoveto
          -33 -14 22 42 66 28 67 49 32 16 -31 -59 -24 -2 -27 -3 -27 hvcurveto
          -13 -18 -26 -16 -29 hhcurveto
          endchar
        </CharString>
        <CharString name="ntilde">
          48 -9 callsubr
          89 15 callgsubr
          73 123 98 -1 callsubr
          hintmask 1110010100000000
          504 -38 callsubr
          -88 callgsubr
          31 162 rlineto
          -2 callsubr
          18 6 -13 -18 hvcurveto
          hintmask 1110011000000000
          -82 -54 -72 callgsubr
          hintmask 1101010010000000
          -10 callgsubr
          61 341 -10 callsubr
          hintmask 1100111000000000
          -55 -36 -49 callgsubr
          hintmask 1110011000000000
          55 36 -21 callsubr
        </CharString>
        <CharString name="numbersign">
          135 0 241 -115 115 111 113 -113 238 hstemhm
          hintmask 10100000
          77 352 rmoveto
          101 hlineto
          -35 -111 rlineto
          -94 hlineto
          hintmask 01100000
          -37 -115 rlineto
          96 hlineto
          hintmask 10100000
          -40 -126 rlineto
          129 hlineto
          hintmask 01100000
          40 126 rlineto
          56 hlineto
          hintmask 10100000
          -39 -126 rlineto
          129 hlineto
          39 127 rlineto
          94 hlineto
          36 114 rlineto
          -94 hlineto
          35 111 rlineto
          88 hlineto
          35 113 rlineto
          -88 hlineto
          hintmask 10010000
          40 13 callsubr
          -40 -125 rlineto
          -56 hlineto
          hintmask 10010000
          39 13 callsubr
          -39 -125 rlineto
          -100 hlineto
          158 -224 rmoveto
          35 111 rlineto
          57 hlineto
          -35 -111 rlineto
          endchar
        </CharString>
        <CharString name="o">
          1 -50 callgsubr
          -101 callsubr
          endchar
        </CharString>
        <CharString name="oacute">
          -86 callsubr
          29 137 rmoveto
          0 98 99 108 52 vhcurveto
          -31 77 -54 -2 callgsubr
        </CharString>
        <CharString name="ocircumflex">
          1 -50 callgsubr
          296 -20 -101 callsubr
          -74 145 -53 callsubr
        </CharString>
        <CharString name="odieresis">
          1 -50 callgsubr
          67 152 hstemhm
          22 161 -41 159 20 162 hintmask 11110100
          -106 callgsubr
          -57 331 rmoveto
          hintmask 11101100
          -33 callgsubr
          -95 callgsubr
          endchar
        </CharString>
        <CharString name="oe">
          250 -13 118 69 109 110 112 -36 callgsubr
          145 128 153 vstem
          -91 callsubr
          64 52 20 34 40 hvcurveto
          -32 24 39 -22 66 hhcurveto
          96 116 57 0 hvcurveto
          -34 -43 callsubr
          -38 -28 -20 14 33 7 0 10 1 5 vhcurveto
          -76 callsubr
          -113 -64 -52 -21 -35 -40 vhcurveto
          34 -22 -40 22 -66 hhcurveto
          -21 -112 -99 callsubr
          282 -4 -58 callgsubr
          -73 -9 hvcurveto
          62 17 31 44 35 hhcurveto
          endchar
        </CharString>
        <CharString name="ograve">
          -86 callsubr
          96 203 -40 callsubr
        </CharString>
        <CharString name="one">
          -104 21 -21 629 -20 hstem
          93 hmoveto
          158 hlineto
          122 629 rlineto
          -114 hlineto
          -80 -77 -92 -28 -72 -20 47 -115 rcurveline
          33 9 42 20 42 26 rrcurveto
          endchar
        </CharString>
        <CharString name="onehalf">
          290 0 99 163 102 20 callsubr
          626 142 vstem
          -67 callsubr
          415 -206 -75 callsubr
        </CharString>
        <CharString name="onequarter">
          273 -2 171 -96 96 418 0 callgsubr
          -67 callsubr
          593 -167 rmoveto
          -90 -20 -35 -52 callgsubr
          hintmask 01100000
          -75 145 vlineto
          hintmask 10100000
          -14 20 callgsubr
          hintmask 01100000
          13 -1 callgsubr
          -46 hlineto
          endchar
        </CharString>
        <CharString name="ordfeminine">
          -80 304 97 -78 -21 275 93 hstemhm
          52 127 95 95 hintmask 10111000
          193 401 rmoveto
          -12 -2 14 16 44 18 102 56 9 4 0 -1 5 hvcurveto
          -7 -30 rlineto
          -60 -14 -31 -85 -26 hhcurveto
          -42 -97 rmoveto
          43 42 27 83 39 hvcurveto
          -1 -19 0 -10 -8 vvcurveto
          hintmask 01111000
          -31 11 -28 14 -16 vhcurveto
          100 39 rlineto
          -21 29 -9 25 39 vvcurveto
          16 2 20 5 23 vhcurveto
          31 157 -65 3 rlineto
          13 -27 -27 4 -31 hhcurveto
          -132 -73 -105 -137 hvcurveto
          hintmask 10111000
          -59 27 -65 72 vhcurveto
          endchar
        </CharString>
        <CharString name="ordmasculine">
          -87 304 96 175 96 hstem
          52 126 81 125 vstem
          184 304 rmoveto
          121 79 104 133 83 -44 47 -87 -122 -79 -104 -134 -83 45 -46 87 hvcurveto
          14 96 rmoveto
          -12 -8 5 23 40 22 107 38 12 9 -6 -22 -40 -22 -107 -39 hvcurveto
          endchar
        </CharString>
        <CharString name="oslash">
          1 -42 -21 50 108 302 108 49 -20 hstem
          22 163 134 164 vstem
          -85 callgsubr
          -47 12 -47 33 -34 hvcurveto
          -37 -54 65 -44 39 59 rlineto
          -5 19 22 -4 26 hhcurveto
          182 100 154 186 47 -13 49 -33 34 hvcurveto
          35 54 -64 43 -39 -58 rlineto
          5 -19 -22 4 -24 hhcurveto
          -21 -108 rmoveto
          6 7 -1 -3 5 hvcurveto
          -116 -177 rlineto
          84 7 32 97 59 hhcurveto
          -61 -302 rmoveto
          -7 -7 1 3 -6 hvcurveto
          117 178 rlineto
          -84 -7 -32 -98 -58 hhcurveto
          endchar
        </CharString>
        <CharString name="otilde">
          1 -50 callgsubr
          116 6 callsubr
          22 161 138 162 hintmask 11010110
          -106 callgsubr
          139 307 -6 callgsubr
          -32 -24 -14 0 hvcurveto
          -14 -65 rlineto
          0 33 9 22 vhcurveto
          hintmask 11100110
          31 11 -12 23 hhcurveto
          32 25 14 0 hvcurveto
          endchar
        </CharString>
        <CharString name="p">
          33 2 callsubr
          2 -20 hstemhm
          89 123 141 162 hintmask 11101100
          -13 -222 rmoveto
          -41 callgsubr
          -62 -55 -32 -93 -43 hvcurveto
          -13 -28 rlineto
          6 40 1 18 14 vvcurveto
          hintmask 11011100
          -88 callsubr
          125 -146 rmoveto
          8 33 rlineto
          hintmask 11101100
          118 28 49 123 -27 callsubr
        </CharString>
        <CharString name="paragraph">
          68 -202 -21 892 -20 hstem
          351 669 rmoveto
          -182 -8 -117 -98 -152 vvcurveto
          -102 72 -62 148 vhcurveto
          130 422 rmoveto
          -120 -621 -16 -83 -41 -40 -86 -40 rlinecurve
          55 -108 124 61 92 57 31 155 rlinecurve
          119 619 rlineto
          endchar
        </CharString>
        <CharString name="parenleft">
          -112 -165 -21 912 -20 hstem
          47 152 vstem
          47 146 rmoveto
          -174 91 -107 60 -51 vhcurveto
          92 83 rlineto
          -44 54 -47 62 142 vvcurveto
          191 94 180 144 103 vhcurveto
          -68 97 rlineto
          -198 -132 -124 -218 -230 vvcurveto
          endchar
        </CharString>
        <CharString name="parenright">
          -115 -165 -21 912 -20 hstem
          190 152 vstem
          342 394 rmoveto
          173 -91 108 -60 51 vhcurveto
          -92 -84 rlineto
          44 -53 47 -62 -143 vvcurveto
          -190 -94 -180 -144 -104 vhcurveto
          68 -96 rlineto
          198 131 124 218 231 vvcurveto
          endchar
        </CharString>
        <CharString name="percent">
          399 -3 96 -72 -21 223 96 -50 95 131 96 hstemhm
          47 120 83 120 143 120 83 120 hintmask 1010111110000000
          175 223 rmoveto
          117 78 105 133 16 callgsubr
          -134 -83 41 -47 87 hvcurveto
          53 272 rmoveto
          12 10 -7 -27 -53 -28 -89 -33 -12 -10 6 28 53 28 89 33 hvcurveto
          412 -498 rmoveto
          117 79 104 133 hvcurveto
          hintmask 1001111110000000
          16 callgsubr
          -133 -83 41 -47 86 vhcurveto
          53 272 rmoveto
          12 11 -7 -27 -54 -28 -88 -33 -12 -10 6 27 54 27 89 33 hvcurveto
          hintmask 0110111110000000
          -514 -269 rmoveto
          -59 callgsubr
          endchar
        </CharString>
        <CharString name="period">
          -234 -13 183 hstem
          -5 190 vstem
          96 -34 callsubr
          endchar
        </CharString>
        <CharString name="periodcentered">
          -239 239 183 hstem
          37 191 vstem
          138 422 rmoveto
          -63 16 callsubr
          40 -15 callgsubr
        </CharString>
        <CharString name="plus">
          23 92 268 -122 122 -122 261 hstemhm
          hintmask 00100000
          230 499 rmoveto
          hintmask 10000000
          -26 -139 rlineto
          -134 hlineto
          hintmask 01000000
          -23 -122 rlineto
          135 hlineto
          hintmask 10000000
          -27 -146 rlineto
          131 hlineto
          hintmask 01000000
          26 146 1 callsubr
          hintmask 00100000
          26 139 rlineto
          endchar
        </CharString>
        <CharString name="plusminus">
          64 22 122 94 122 -122 261 hstemhm
          hintmask 10100000
          270 499 rmoveto
          hintmask 11000000
          -26 -139 14 callgsubr
          135 hlineto
          -18 -94 14 callgsubr
          401 hlineto
          23 -14 callsubr
          -136 hlineto
          17 94 1 callsubr
          hintmask 10100000
          26 139 rlineto
          endchar
        </CharString>
        <CharString name="q">
          18 4 callgsubr
          118 278 115 hstem
          22 162 vstem
          22 163 rmoveto
          -23 callsubr
          53 45 29 58 35 vhcurveto
          -22 -56 -17 -46 -9 -45 -30 -153 rcurveline
          158 20 125 649 7 26 -80 5 rlineto
          14 -32 -33 10 -50 -71 callsubr
          hvcurveto
          185 -54 -79 callsubr
          13 7 -2 -2 10 hvcurveto
          -11 -48 rlineto
          -105 -23 -52 -121 -39 hhcurveto
          endchar
        </CharString>
        <CharString name="question">
          -64 -13 183 385 121 hstem
          46 190 59 168 vstem
          288 676 rmoveto
          -65 -69 -28 -30 -65 hvcurveto
          47 -110 rlineto
          25 45 33 22 38 hhcurveto
          26 17 -15 -26 -83 -153 -67 -23 -142 hvcurveto
          108 -30 25 55 31 36 40 37 rlinecurve
          69 66 71 45 103 vvcurveto
          84 -61 58 -114 vhcurveto
          -142 -506 -33 callsubr
        </CharString>
        <CharString name="questiondown">
          -80 -190 121 385 182 hstem
          -31 167 59 190 vstem
          144 -190 rmoveto
          65 68 28 29 65 hvcurveto
          -46 111 rlineto
          -25 -46 -33 -22 -37 hhcurveto
          -26 -18 15 25 84 153 66 24 143 hvcurveto
          -108 30 -25 -55 -32 -36 -39 -37 rlinecurve
          -70 -66 -70 -45 -103 vvcurveto
          -85 60 -57 115 vhcurveto
          141 506 rmoveto
          63 37 45 53 49 -28 35 -60 -62 -40 -45 -52 -53 30 -32 60 hvcurveto
          endchar
        </CharString>
        <CharString name="quotedbl">
          -63 -35 callgsubr
          50 hmoveto
          -32 callgsubr
          endchar
        </CharString>
        <CharString name="quotedblbase">
          -16 -127 -19 callgsubr
          37 155 61 12 callsubr
          37 74 rmoveto
          -45 -9 -74 callgsubr
          91 -82 callsubr
          216 hmoveto
          -89 callgsubr
          endchar
        </CharString>
        <CharString name="quotedblleft">
          -38 461 -19 callgsubr
          98 155 62 -60 callgsubr
          -14 callgsubr
          45 8 -17 callgsubr
          -90 -12 callgsubr
          30 21 0 vhcurveto
          -2 18 -3 26 27 vvcurveto
          endchar
        </CharString>
        <CharString name="quotedblright">
          -38 463 -21 313 -20 hstem
          167 155 62 12 callsubr
          167 664 rmoveto
          -66 callsubr
          -26 callgsubr
          -14 callgsubr
          -45 -9 -74 callgsubr
          91 -26 callgsubr
          endchar
        </CharString>
        <CharString name="quoteleft">
          -232 461 -19 callgsubr
          98 -60 callgsubr
          endchar
        </CharString>
        <CharString name="quoteright">
          -232 464 -19 callgsubr
          144 12 callsubr
          144 665 rmoveto
          -45 -8 -42 -77 -49 vhcurveto
          52 -86 rlineto
          98 52 -21 callgsubr
          -27 vvcurveto
          endchar
        </CharString>
        <CharString name="quotesinglbase">
          -220 -127 -19 callgsubr
          44 12 callsubr
          44 74 rmoveto
          -89 callgsubr
          endchar
        </CharString>
        <CharString name="quotesingle">
          -252 -35 callgsubr
          endchar
        </CharString>
        <CharString name="r">
          -97 21 -21 364 138 2 -20 hstemhm
          88 123 hintmask 11010000
          450 465 rmoveto
          27 -24 -33 10 -39 hhcurveto
          -71 -45 -42 -114 -34 hvcurveto
          5 43 2 17 15 vvcurveto
          hintmask 10110000
          -88 callgsubr
          48 244 rlineto
          hintmask 11010000
          59 13 30 61 38 hhcurveto
          27 16 -14 -15 14 hvcurveto
          endchar
        </CharString>
        <CharString name="registered">
          76 214 69 342 68 hstem
          67 80 194 67 54 80 vstem
          67 402 rmoveto
          -116 77 -72 115 175 108 143 149 115 -76 72 -115 -176 -108 -142 -149 vhcurveto
          271 223 rmoveto
          87 37 -59 -75 -115 -81 -93 -109 -88 -37 61 73 115 83 93 108 hvcurveto
          61 -271 rmoveto
          -19 29 -20 33 -8 25 rrcurveto
          32 16 24 26 40 vvcurveto
          40 -33 19 -44 -12 -16 -2 -2 -12 vhcurveto
          -45 7 -50 -260 rlineto
          67 hlineto
          20 103 rlineto
          3 3 -2 5 hhcurveto
          14 -40 12 -28 25 -41 rrcurveto
          -31 217 rmoveto
          14 13 -7 -15 -19 -12 -8 -21 -4 hvcurveto
          -1 -6 -7 0 -2 hhcurveto
          10 53 rlineto
          endchar
        </CharString>
        <CharString name="ring">
          -8 638 72 83 71 hstem
          134 79 70 79 vstem
          256 793 rmoveto
          17 10 -13 -18 -26 -17 -26 -25 -18 -10 12 18 26 16 27 27 hvcurveto
          -27 -155 rmoveto
          79 54 60 72 54 -34 40 -61 -79 -54 -60 -71 -54 34 -41 61 hvcurveto
          endchar
        </CharString>
        <CharString name="s">
          -79 -13 116 291 111 hstemhm
          62 158 -6 158 hintmask 11100000
          258 505 rmoveto
          hintmask 11010000
          -129 -67 -66 -90 -85 44 -33 34 -17 hvcurveto
          33 -17 rlineto
          28 -14 13 -16 -26 vvcurveto
          -23 -16 -15 -34 -42 -73 54 0 vhcurveto
          -62 -112 rlineto
          0 95 -58 87 vhcurveto
          hintmask 11100000
          134 69 77 90 85 -43 27 -47 28 hvcurveto
          -26 15 rlineto
          -15 9 -21 15 25 vvcurveto
          14 7 22 26 33 1 -24 -24 7 vhcurveto
          114 39 rlineto
          80 -12 -46 40 -92 hhcurveto
          endchar
        </CharString>
        <CharString name="section">
          9 -216 118 623 118 hstemhm
          22 156 -47 158 -90 158 -47 156 hintmask 11101000
          155 -216 rmoveto
          hintmask 11010100
          127 75 93 85 31 -11 26 -15 24 hvcurveto
          84 34 51 66 79 132 -177 49 72 vvcurveto
          34 21 16 25 23 16 -13 -13 14 vhcurveto
          63 103 rlineto
          28 -33 -30 13 -55 hhcurveto
          hintmask 11101000
          -127 -75 -94 -84 -31 10 -27 16 -24 hvcurveto
          -85 -34 -50 -66 -78 -132 177 -49 -72 vvcurveto
          -34 -21 -16 -25 -23 -16 13 13 -14 vhcurveto
          -63 -103 rlineto
          -28 33 30 -13 55 hhcurveto
          155 408 rmoveto
          -35 -23 -19 -33 -12 vhcurveto
          -39 37 -37 33 39 vvcurveto
          35 23 19 34 11 vhcurveto
          hintmask 11100100
          38 -36 37 -34 -38 vvcurveto
          endchar
        </CharString>
        <CharString name="semicolon">
          -185 -127 -21 314 153 0 183 hstemhm
          80 155 -132 190 hintmask 11010000
          80 74 rmoveto
          -89 callgsubr
          hintmask 10101000
          124 428 rmoveto
          -63 -38 -45 -54 -49 28 -35 60 63 39 45 52 53 -29 33 -60 hvcurveto
          endchar
        </CharString>
        <CharString name="seven">
          -93 21 -21 500 126 hstem
          443 524 rmoveto
          102 -424 vlineto
          24 -126 rlineto
          214 hlineto
          -268 -500 rlineto
          173 hlineto
          endchar
        </CharString>
        <CharString name="six">
          1 -16 123 196 118 91 125 hstem
          17 163 125 161 vstem
          472 607 rmoveto
          20 -35 -45 10 -48 hhcurveto
          -232 -95 -202 -241 -152 78 -58 122 147 102 114 179 75 -40 69 -100 -49 -41 -21 -24 -31 hvcurveto
          76 22 40 60 63 hhcurveto
          36 26 -5 -11 33 hvcurveto
          -167 -193 rmoveto
          33 14 -21 -42 -67 -28 -66 -50 -31 -16 31 59 24 1 27 3 27 hvcurveto
          13 18 27 15 29 hhcurveto
          endchar
        </CharString>
        <CharString name="slash">
          -41 -24 callsubr
          -103 -18 callgsubr
        </CharString>
        <CharString name="space">
          -284 endchar
        </CharString>
        <CharString name="sterling">
          106 -13 123 -110 110 121 123 151 131 hstemhm
          hintmask 01110000
          447 133 rmoveto
          -15 -27 -25 -8 -35 -28 -29 5 -36 hhcurveto
          -16 -26 -1 -3 -17 hvcurveto
          22 24 19 33 14 44 5 19 rcurveline
          144 hlineto
          44 123 rlineto
          -152 hlineto
          19 63 rlineto
          53 15 34 35 47 hhcurveto
          40 11 -21 -29 11 hvcurveto
          121 54 rlineto
          64 -12 -34 63 -126 hhcurveto
          -139 -90 -82 -125 -33 hvcurveto
          -19 -75 rlineto
          -68 hlineto
          -24 -123 rlineto
          60 hlineto
          -14 -56 -15 -57 -52 -27 -4 -3 rlinecurve
          31 -90 rlineto
          1 12 9 1 13 hhcurveto
          hintmask 10110000
          97 75 -13 87 hhcurveto
          49 44 12 20 32 hvcurveto
          endchar
        </CharString>
        <CharString name="t">
          -128 -7 119 262 116 146 -20 hstem
          62 270 vstem
          42 374 rmoveto
          74 hlineto
          -50 -247 rlineto
          -2 -12 -2 -16 -10 vvcurveto
          -62 35 -34 92 81 62 23 0 vhcurveto
          113 vlineto
          0 -54 -17 -25 -23 -6 7 13 7 1 16 2 7 vhcurveto
          42 212 rlineto
          106 hlineto
          18 116 rlineto
          -102 hlineto
          29 146 -139 -31 -41 -115 rlineto
          -98 hlineto
          endchar
        </CharString>
        <CharString name="thorn">
          23 2 callsubr
          20 callsubr
          343 162 vstem
          202 364 rmoveto
          45 108 30 56 15 83 21 114 rcurveline
          -156 -20 -180 -927 -41 callgsubr
          -57 -52 -32 -106 -57 hvcurveto
          -221 vmoveto
          110 27 50 131 -27 callsubr
        </CharString>
        <CharString name="three">
          -1 -6 121 395 127 hstemhm
          279 170 -144 144 -144 170 hintmask 11010000
          312 637 rmoveto
          -82 -65 -18 -37 -83 hvcurveto
          45 -112 rlineto
          27 58 39 13 45 hhcurveto
          21 15 -12 -20 -52 -84 -18 -110 -39 hvcurveto
          21 -103 rlineto
          5 27 33 8 32 hhcurveto
          hintmask 11100000
          35 20 -27 -40 -54 -35 -43 -59 -53 -39 9 callsubr
          71 65 -13 70 hhcurveto
          167 97 101 133 57 -30 57 -67 24 hvcurveto
          hintmask 11001000
          81 22 42 48 76 vvcurveto
          75 -53 50 -110 vhcurveto
          endchar
        </CharString>
        <CharString name="threequarters">
          319 -2 171 -96 96 55 87 67 212 -85 85 hstemhm
          187 131 -119 119 -119 131 hintmask 10101100
          230 590 rmoveto
          -55 -43 -11 -24 -47 hvcurveto
          31 -74 rlineto
          15 30 24 9 17 hhcurveto
          hintmask 10110010
          8 4 -3 -8 -21 -39 -11 -60 -18 hvcurveto
          19 -75 rlineto
          5 20 13 4 13 hhcurveto
          hintmask 10110100
          -13 callgsubr
          -34 -75 rlineto
          -22 33 35 -17 59 hhcurveto
          97 65 59 72 41 -20 27 -34 13 hvcurveto
          hintmask 10101001
          46 13 20 29 35 vvcurveto
          54 -50 23 -50 vhcurveto
          -69 -590 rmoveto
          -59 callgsubr
          233 -307 rmoveto
          -89 -20 -36 -52 callgsubr
          hintmask 01110100
          -75 146 vlineto
          hintmask 10110100
          -15 20 callgsubr
          hintmask 01110100
          14 -1 callgsubr
          -47 hlineto
          endchar
        </CharString>
        <CharString name="tilde">
          -10 591 15 callgsubr
          hintmask 01000000
          421 719 -10 callsubr
          hintmask 00100000
          -55 -36 -49 callgsubr
          hintmask 10000000
          55 36 -21 callsubr
        </CharString>
        <CharString name="two">
          -5 0 126 384 127 hstem
          294 172 vstem
          115 470 rmoveto
          27 58 39 13 38 hhcurveto
          33 11 -22 -26 -58 -48 -41 -125 -120 hvcurveto
          -122 -117 rlineto
          -126 398 vlineto
          24 126 rlineto
          -220 hlineto
          96 86 rlineto
          127 116 42 80 88 vvcurveto
          86 -72 55 -102 -72 -68 -18 -37 -83 vhcurveto
          endchar
        </CharString>
        <CharString name="u">
          43 -9 128 -110 -21 502 -20 31 -48 callgsubr
          hintmask 10100110
          84 391 rmoveto
          hintmask 10101010
          -90 callgsubr
          hintmask 01101010
          -64 callsubr
          -75 callgsubr
          50 253 rlineto
          -154 hlineto
          -31 -159 rlineto
          hintmask 10100110
          -66 callgsubr
          -6 13 17 hvcurveto
          hintmask 10010110
          76 52 -97 callgsubr
          endchar
        </CharString>
        <CharString name="uacute">
          -98 callgsubr
          235 135 rmoveto
          0 97 -76 callgsubr
        </CharString>
        <CharString name="ucircumflex">
          -43 callgsubr
          324 -104 callgsubr
          131 143 -17 callsubr
          57 -65 callsubr
          -90 -46 callsubr
        </CharString>
        <CharString name="udieresis">
          -43 callgsubr
          95 152 hstemhm
          27 157 -100 100 -36 159 29 122 -92 158 hintmask 1011010100000000
          84 391 rmoveto
          hintmask 1011100100000000
          -90 callgsubr
          hintmask 0111100010000000
          -64 callsubr
          hintmask 1011010100000000
          -81 callgsubr
          -93 callsubr
          148 329 rmoveto
          hintmask 1011001010000000
          -53 15 callsubr
          33 -77 callsubr
        </CharString>
        <CharString name="ugrave">
          -98 callgsubr
          301 201 rmoveto
          0 -87 83 -50 114 vhcurveto
          -81 -46 callgsubr
        </CharString>
        <CharString name="underscore">
          -17 -180 117 hstem
          -22 -180 rmoveto
          495 3 callgsubr
          -493 hlineto
          endchar
        </CharString>
        <CharString name="uni00A0">
          -257 endchar
        </CharString>
        <CharString name="uni00AD">
          -104 260 117 hstem
          37 260 rmoveto
          304 3 callgsubr
          -302 hlineto
          endchar
        </CharString>
        <CharString name="uni00B2">
          -179 315 99 163 102 hstem
          171 142 vstem
          90 556 -75 callsubr
        </CharString>
        <CharString name="uni00B3">
          -158 313 87 67 212 -85 85 hstemhm
          181 130 -118 118 -118 131 hintmask 11001000
          22 352 rmoveto
          -22 34 35 -17 59 hhcurveto
          97 64 59 72 41 -19 27 -34 13 hvcurveto
          hintmask 10100100
          46 13 20 29 35 vvcurveto
          54 -51 23 -49 -56 -42 -11 -24 -47 vhcurveto
          31 -74 rlineto
          15 30 23 9 17 hhcurveto
          9 4 -3 -8 -21 -40 -11 -59 -18 hvcurveto
          19 -75 rlineto
          hintmask 11010000
          5 20 13 4 13 hhcurveto
          -13 callgsubr
          endchar
        </CharString>
        <CharString name="uni00B5">
          66 4 callgsubr
          130 369 -20 hstemhm
          205 154 0 122 hintmask 11101000
          -23 -222 rmoveto
          156 20 21 113 8 39 -2 46 -4 29 rlinecurve
          -24 17 23 -10 24 hhcurveto
          59 36 37 85 37 hvcurveto
          14 33 rlineto
          -6 -43 -1 -15 -13 vvcurveto
          -92 callgsubr
          -92 -18 -54 -118 -53 hhcurveto
          hintmask 11110000
          -12 -14 11 19 7 0 6 1 7 hvcurveto
          61 319 rlineto
          -153 hlineto
          endchar
        </CharString>
        <CharString name="uni00B9">
          -208 337 -21 361 -20 hstem
          78 316 -73 callgsubr
          endchar
        </CharString>
        <CharString name="uni2074">
          -142 316 171 -96 96 191 0 callgsubr
          324 598 rmoveto
          -89 -20 -36 -52 callgsubr
          hintmask 01100000
          -75 146 vlineto
          hintmask 10100000
          -15 20 callgsubr
          hintmask 01100000
          14 -1 callgsubr
          -47 hlineto
          endchar
        </CharString>
        <CharString name="uni2215">
          -71 -24 callsubr
          -128 -18 callgsubr
        </CharString>
        <CharString name="v">
          19 -3 callgsubr
          162 152 hintmask 11011000
          344 1 callgsubr
          -68 -168 -65 -19 -10 18 callgsubr
          -25 callgsubr
          56 -41 88 83 52 18 42 49 vhcurveto
          87 73 54 138 121 vvcurveto
          hintmask 10111000
          30 -7 43 -21 43 vhcurveto
          endchar
        </CharString>
        <CharString name="w">
          241 -3 callgsubr
          136 82 -82 152 96 152 hintmask 10111010
          566 1 callgsubr
          -70 -168 -63 -20 -10 13 19 -3 vhcurveto
          hintmask 10110110
          45 72 25 91 85 -94 callsubr
          -34 -20 vvcurveto
          -118 -45 -168 -63 -19 -9 18 callgsubr
          hintmask 11011010
          -25 callgsubr
          57 -41 88 52 43 17 26 38 vhcurveto
          -33 27 32 -10 42 hhcurveto
          68 55 20 43 49 hvcurveto
          87 75 53 135 119 vvcurveto
          hintmask 10111010
          30 -8 43 -20 43 vhcurveto
          endchar
        </CharString>
        <CharString name="x">
          -16 21 -21 490 -20 31 0 callgsubr
          117 hmoveto
          92 116 8 10 11 14 7 11 rlinecurve
          3 -9 3 -12 5 -10 45 -120 rcurveline
          163 hlineto
          -109 246 41 37 42 38 24 36 rlinecurve
          19 29 5 26 19 vvcurveto
          21 -12 28 -10 21 vhcurveto
          -133 -33 rlineto
          4 -17 3 -15 -10 vvcurveto
          -10 -3 -12 -11 -14 vhcurveto
          -8 -11 -10 -13 -12 -14 -7 14 -5 13 -7 18 rrcurveto
          hintmask 11000000
          -42 93 rlineto
          -163 hlineto
          115 -229 -238 -261 rlineto
          endchar
        </CharString>
        <CharString name="y">
          -12 callsubr
          371 -20 31 -22 callsubr
          hintmask 1110010100000000
          522 490 rmoveto
          -154 hlineto
          -31 -159 -16 callgsubr
          -7 13 17 hvcurveto
          hintmask 1101001100000000
          76 53 -97 callgsubr
          hintmask 1110100010000000
          -96 callsubr
          hintmask 1110100100000000
          3 callsubr
          34 21 102 39 198 vhcurveto
          endchar
        </CharString>
        <CharString name="yacute">
          -12 callsubr
          374 -20 316 -22 callsubr
          hintmask 1111010100000000
          -41 callsubr
          hintmask 1111001100000000
          76 53 -97 callgsubr
          hintmask 1111100010000000
          -96 callsubr
          hintmask 1111100100000000
          -4 callgsubr
          -208 33 rmoveto
          0 98 99 107 52 vhcurveto
          -31 77 -53 -2 callgsubr
        </CharString>
        <CharString name="ydieresis">
          -12 callsubr
          374 -20 95 152 -18 callsubr
          -96 159 35 -11 callsubr
          -116 158 hintmask 1111010010000000
          -41 callsubr
          hintmask 1111001010000000
          76 53 -97 callgsubr
          hintmask 1111100001000000
          -96 callsubr
          hintmask 1111000110000000
          -4 callgsubr
          -295 227 -35 callsubr
          hintmask 1111100000100000
          -52 15 callsubr
          32 -54 callsubr
        </CharString>
        <CharString name="yen">
          58 0 201 -122 122 28 122 287 -20 hstemhm
          hintmask 10110000
          132 hmoveto
          157 hlineto
          hintmask 01110000
          14 79 rlineto
          111 -8 callsubr
          -111 hlineto
          5 28 rlineto
          111 -8 callsubr
          -68 hlineto
          171 228 -125 59 -165 -251 -65 242 rlineto
          -161 hlineto
          100 -278 rlineto
          -64 5 callgsubr
          109 hlineto
          -5 -28 rlineto
          -109 5 callgsubr
          109 hlineto
          endchar
        </CharString>
        <CharString name="z">
          -98 -13 124 -111 111 262 117 hstemhm
          hintmask 01100000
          366 136 rmoveto
          -18 -30 -24 -7 -29 -29 -23 5 -35 hhcurveto
          -6 -11 -1 -2 -12 hvcurveto
          232 288 rlineto
          89 -346 -117 71 vlineto
          28 30 1 2 28 hvcurveto
          -238 -286 rlineto
          -90 57 vlineto
          hintmask 10100000
          84 78 -13 81 hhcurveto
          49 49 10 20 32 hvcurveto
          endchar
        </CharString>
        <CharString name="zero">
          64 -16 121 411 121 hstem
          29 164 176 163 vstem
          340 637 rmoveto
          -207 -104 -225 -232 -124 63 -72 129 207 104 225 232 124 -64 72 -128 hvcurveto
          -15 -121 rmoveto
          33 11 -41 -51 -138 -48 -181 -85 -33 -10 41 51 137 47 182 85 hvcurveto
          endchar
        </CharString>
      <CharString index="0">
        22 163 rmoveto
        -62 callsubr
        97 115 57 0 vhcurveto
        -34 -43 callsubr
        -37 -28 -21 14 33 vhcurveto
        7 1 10 5 vvcurveto
        -76 callsubr
        -112 -180 -102 -158 -184 vhcurveto
        258 226 -78 callsubr
        31 44 35 hhcurveto
        return
      </CharString>
      <CharString index="1">
        -91 callsubr
        182 100 154 186 88 -43 90 -136 hvcurveto
        -21 -112 -99 callsubr
        return
      </CharString>
      <CharString index="2">
        vstem
        125 669 rmoveto
        -80 -410 rlineto
        -5 -25 -3 -25 -22 vvcurveto
        -111 58 -83 161 196 89 119 139 27 vhcurveto
        81 418 -55 callsubr
        -79 -401 rlineto
        -91 -18 -42 -65 -65 hhcurveto
        -50 -31 34 62 16 1 17 4 19 hvcurveto
        80 409 rlineto
        return
      </CharString>
      <CharString index="3">
        -48 callgsubr
        hintmask 10110110
        84 391 rmoveto
        hintmask 10111010
        -90 callgsubr
        hintmask 01111010
        -92 callgsubr
        hintmask 10110110
        -93 callsubr
        return
      </CharString>
      <CharString index="4">
        -20 -51 callgsubr
        hintmask 10111100
        -105 callsubr
        hintmask 01111100
        -102 callgsubr
        hintmask 10111100
        -23 callsubr
        vhcurveto
        return
      </CharString>
      <CharString index="5">
        -89 callsubr
        24 3 29 7 32 vhcurveto
        42 218 -80 5 rlineto
        17 -37 -33 7 -44 -71 callsubr
        hvcurveto
        return
      </CharString>
      <CharString index="6">
        138 -7 rmoveto
        -104 callsubr
        return
      </CharString>
      <CharString index="7">
        -20 hstem
        27 220 vstem
        -101 callgsubr
        return
      </CharString>
      <CharString index="8">
        7 hmoveto
        441 121 -256 hlineto
        8 callgsubr
        201 -47 callgsubr
        -205 hlineto
        28 137 -70 callsubr
        return
      </CharString>
      <CharString index="9">
        -43 callgsubr
        316 -104 callgsubr
        return
      </CharString>
      <CharString index="10">
        79 81 -94 callsubr
        -32 -22 vvcurveto
        return
      </CharString>
      <CharString index="11">
        -91 callgsubr
        -52 15 callsubr
        32 -54 callsubr
      </CharString>
      <CharString index="12">
        -53 -92 callsubr
        51 -87 callsubr
        return
      </CharString>
      <CharString index="13">
        -56 callsubr
        288 -20 -106 callsubr
        return
      </CharString>
      <CharString index="14">
        -37 1 -12 -25 vvcurveto
        -40 -27 -37 -55 -54 -69 26 20 -48 vhcurveto
        -56 -119 rlineto
        -22 46 82 -38 108 hhcurveto
        129 83 64 131 hvcurveto
        return
      </CharString>
      <CharString index="15">
        -64 callsubr
        -81 callgsubr
        return
      </CharString>
      <CharString index="16">
        -95 callgsubr
        217 hmoveto
        return
      </CharString>
      <CharString index="17">
        -95 callsubr
        28 rlineto
        -5 -43 -1 -15 -13 vvcurveto
        return
      </CharString>
      <CharString index="18">
        -66 callsubr
        -82 callsubr
        return
      </CharString>
      <CharString index="19">
        -88 callsubr
        -51 -256 rlineto
        155 hlineto
        return
      </CharString>
      <CharString index="20">
        62 55 36 91 43 hvcurveto
        13 callgsubr
        -3 -27 0 -19 -16 vvcurveto
        return
      </CharString>
      <CharString index="21">
        rmoveto
        -116 hlineto
        91 182 6 -45 8 -69 11 -68 rlinecurve
        return
      </CharString>
      <CharString index="22">
        304 505 rmoveto
        -68 callgsubr
        return
      </CharString>
      <CharString index="23">
        -86 callgsubr
        endchar
      </CharString>
      <CharString index="24">
        25 -160 rlineto
        166 hlineto
        -128 21 callgsubr
        -138 hlineto
        return
      </CharString>
      <CharString index="25">
        -20 hstemhm
        hintmask 10111000
        -48 -81 callsubr
        hintmask 01111000
        -83 callgsubr
        return
      </CharString>
      <CharString index="26">
        -75 callgsubr
        51 256 rlineto
        -20 callgsubr
        return
      </CharString>
      <CharString index="27">
        -36 callsubr
        130 669 -55 callsubr
        return
      </CharString>
      <CharString index="28">
        -65 callsubr
        -91 -46 callsubr
      </CharString>
      <CharString index="29">
        -10 -45 rlineto
        -97 -23 -51 -132 -41 hhcurveto
        return
      </CharString>
      <CharString index="30">
        -52 -56 callgsubr
        return
      </CharString>
      <CharString index="31">
        -48 callsubr
        -106 -59 -81 -15 callsubr
      </CharString>
      <CharString index="32">
        -10 16 -24 38 60 vvcurveto
        24 3 28 7 33 vhcurveto
        return
      </CharString>
      <CharString index="33">
        -43 -77 -49 vhcurveto
        52 -85 rlineto
        98 51 return
      </CharString>
      <CharString index="34">
        rmoveto
        128 hlineto
        67 361 rlineto
        -94 hlineto
        -45 -44 -59 -18 -43 -11 38 -92 rcurveline
        17 5 18 10 15 11 rrcurveto
        return
      </CharString>
      <CharString index="35">
        -90 -95 vvcurveto
        -17 0 -19 7 -40 vhcurveto
        156 hlineto
        -10 44 -3 40 24 vvcurveto
        return
      </CharString>
      <CharString index="36">
        -63 callgsubr
        -18 3 -26 return
      </CharString>
      <CharString index="37">
        462 326 rmoveto
        -4 -23 -4 -42 -2 -30 -12 29 -16 43 -11 26 -148 340 rcurveline
        -134 hlineto
        -124 -651 154 -24 56 347 4 26 3 39 3 29 rlinecurve
        10 -26 14 -40 12 -26 rrcurveto
        return
      </CharString>
      <CharString index="38">
        -57 callsubr
        388 -20 return
      </CharString>
      <CharString index="39">
        -181 -101 -158 -184 return
      </CharString>
      <CharString index="40">
        49 149 147 rcurveline
        -65 80 -40 -31 -122 -94 -94 -102 rlinecurve
        61 -100 131 -130 0 vvcurveto
        return
      </CharString>
      <CharString index="41">
        -92 -18 -57 -120 -51 hhcurveto
        -17 return
      </CharString>
      <CharString index="42">
        -71 callgsubr
        -27 vvcurveto
        return
      </CharString>
      <CharString index="43">
        16 0 121 169 121 137 121 return
      </CharString>
      <CharString index="44">
        -54 -55 -30 -21 0 vhcurveto
        2 return
      </CharString>
      <CharString index="45">
        -20 hstem
        7 -80 callgsubr
        return
      </CharString>
      <CharString index="46">
        rmoveto
        -53 -31 -37 -45 -41 23 -29 50 52 34 -77 callsubr
      </CharString>
      <CharString index="47">
        12 callsubr
        253 532 rmoveto
        45 9 -17 callgsubr
        -91 -12 callgsubr
        31 21 0 vhcurveto
        -2 18 -4 26 27 vvcurveto
        return
      </CharString>
      <CharString index="48">
        149 hlineto
        376 587 rlineto
        -150 hlineto
        return
      </CharString>
      <CharString index="49">
        rmoveto
        19 10 -9 -18 -30 -39 -40 return
      </CharString>
      <CharString index="50">
        9 9 6 1 3 3 17 hvcurveto
        return
      </CharString>
      <CharString index="51">
        -92 callsubr
        50 return
      </CharString>
      <CharString index="52">
        -70 -21 55 69 133 return
      </CharString>
      <CharString index="53">
        0 vvcurveto
        endchar
      </CharString>
      <CharString index="54">
        -17 callsubr
        58 -79 callgsubr
      </CharString>
      <CharString index="55">
        -91 rlineto
        -42 hlineto
        111 191 rlineto
        -117 hlineto
        -119 -212 rlineto
        return
      </CharString>
      <CharString index="56">
        hstemhm
        22 162 145 122 return
      </CharString>
      <CharString index="57">
        -13 112 294 112 return
      </CharString>
      <CharString index="58">
        22 -47 hhcurveto
        -54 -52 callsubr
        return
      </CharString>
      <CharString index="59">
        -20 hstemhm
        27 157 -100 100 152 122 return
      </CharString>
      <CharString index="60">
        hlineto
        26 121 rlineto
        return
      </CharString>
      <CharString index="61">
        -33 -33 -52 0 vvcurveto
        56 -45 callgsubr
      </CharString>
      <CharString index="62">
        -110 122 -68 -54 callgsubr
      </CharString>
      <CharString index="63">
        14 61 -2 65 hhcurveto
        313 98 192 263 144 -69 84 -163 -49 -54 -6 -9 -43 hvcurveto
        -104 8 return
      </CharString>
      <CharString index="64">
        43 -9 128 -110 -21 505 -20 return
      </CharString>
      <CharString index="65">
        21 -39 callgsubr
        return
      </CharString>
      <CharString index="66">
        156 20 38 197 rlineto
        -2 14 16 -2 17 hhcurveto
        186 101 148 191 81 -37 91 -100 return
      </CharString>
      <CharString index="67">
        rmoveto
        0 -86 83 -51 114 vhcurveto
        -81 -33 -32 -52 0 vvcurveto
        55 -45 callgsubr
      </CharString>
      <CharString index="68">
        -21 669 -20 return
      </CharString>
      <CharString index="69">
        rmoveto
        27 -46 45 -71 30 -48 -148 -147 rcurveline
        65 -80 40 31 122 94 94 102 rlinecurve
        return
      </CharString>
      <CharString index="70">
        rmoveto
        0 -104 60 -76 99 vhcurveto
        -71 -52 -19 -25 callsubr
        endchar
      </CharString>
      <CharString index="71">
        hstem
        22 161 138 return
      </CharString>
      <CharString index="72">
        412 257 hstem
        111 669 rmoveto
        -32 callgsubr
        return
      </CharString>
      <CharString index="73">
        557 555 rmoveto
        70 -13 -42 56 -113 hhcurveto
        -238 -119 -29 callsubr
        return
      </CharString>
      <CharString index="74">
        -53 -31 callgsubr
        34 -44 callsubr
        return
      </CharString>
      <CharString index="75">
        -39 -257 rlineto
        121 hlineto
        57 257 rlineto
        return
      </CharString>
      <CharString index="76">
        -56 callgsubr
        52 return
      </CharString>
      <CharString index="77">
        -207 -23 callgsubr
        return
      </CharString>
      <CharString index="78">
        159 59 158 return
      </CharString>
      <CharString index="79">
        -21 0 vvcurveto
        54 82 rlineto
        0 -95 66 -61 86 vhcurveto
        -97 -53 -114 -97 0 vvcurveto
        return
      </CharString>
      <CharString index="80">
        -32 callsubr
        36 14 -27 -31 7 hvcurveto
        endchar
      </CharString>
      <CharString index="81">
        -30 callsubr
        26 -63 callgsubr
        -17 3 -26 -27 vvcurveto
        return
      </CharString>
      <CharString index="82">
        57 297 rlineto
        -152 hlineto
        -57 -293 rlineto
        -3 -18 -6 -45 -17 vvcurveto
        -83 return
      </CharString>
      <CharString index="83">
        -38 -45 -53 -50 28 -35 return
      </CharString>
      <CharString index="84">
        -7 122 375 -20 return
      </CharString>
      <CharString index="85">
        8 -1 -3 8 return
      </CharString>
      <CharString index="86">
        90 91 100 vvcurveto
        45 -21 26 -71 callgsubr
        return
      </CharString>
      <CharString index="87">
        -154 hlineto
        -32 -162 rlineto
        return
      </CharString>
      <CharString index="88">
        -21 314 -20 hstem
        return
      </CharString>
      <CharString index="89">
        -126 rmoveto
        159 hlineto
        469 855 11 callsubr
      </CharString>
      <CharString index="90">
        43 77 49 vhcurveto
        -52 85 rlineto
        -98 -51 return
      </CharString>
      <CharString index="91">
        rlineto
        -66 callgsubr
        return
      </CharString>
      <CharString index="92">
        -8 callgsubr
        -61 hvcurveto
        endchar
      </CharString>
      <CharString index="93">
        217 hmoveto
        return
      </CharString>
      <CharString index="94">
        12 10 -4 -19 -26 -16 -18 -31 -25 -19 10 17 -33 hvcurveto
        return
      </CharString>
      <CharString index="95">
        -92 -100 vvcurveto
        -44 21 -27 54 55 return
      </CharString>
      <CharString index="96">
        -31 -36 -44 -41 23 -29 50 51 return
      </CharString>
      <CharString index="97">
        74 60 84 112 vvcurveto
        return
      </CharString>
      <CharString index="98">
        36 -21 457 -20 hstem
        return
      </CharString>
      <CharString index="99">
        45 53 53 -29 32 return
      </CharString>
      <CharString index="100">
        rlineto
        196 hlineto
        return
      </CharString>
      <CharString index="101">
        rmoveto
        0 -32 -9 -22 vhcurveto
        hintmask 11001110
        -31 -11 12 -24 hhcurveto
        return
      </CharString>
      <CharString index="102">
        -42 -48 -46 26 -33 57 57 37 41 48 49 -26 31 return
      </CharString>
      <CharString index="103">
        3 callsubr
        34 22 105 39 198 vhcurveto
        return
      </CharString>
      <CharString index="104">
        -7 112 385 -20 31 -20 hstemhm
        37 155 return
      </CharString>
      <CharString index="105">
        35 0 vvcurveto
        -107 -59 -80 -15 callsubr
      </CharString>
      <CharString index="106">
        75 rlineto
        45 hlineto
        20 96 rlineto
        return
      </CharString>
      <CharString index="107">
        -20 hstemhm
        hintmask 10100000
        return
      </CharString>
      <CharString index="108">
        468 rmoveto
        19 callgsubr
        return
      </CharString>
      <CharString index="109">
        -111 7 rlineto
        174 -106 rmoveto
        43 27 -20 return
      </CharString>
      <CharString index="110">
        hlineto
        21 117 rlineto
        return
      </CharString>
      <CharString index="111">
        -201 -21 213 return
      </CharString>
      <CharString index="112">
        hlineto
        -24 -122 rlineto
        return
      </CharString>
      <CharString index="113">
        32 174 return
      </CharString>
      <CharString index="114">
        -113 0 vvcurveto
        return
      </CharString>
      <CharString index="115">
        34 169 rlineto
        return
      </CharString>
      <CharString index="116">
        -186 122 662 122 hstem
        return
      </CharString>
      <CharString index="117">
        182 15 -21 26 -21 670 -20 return
      </CharString>
      <CharString index="118">
        rlineto
        6 24 23 2 31 hhcurveto
        endchar
      </CharString>
      <CharString index="119">
        -97 -54 callgsubr
      </CharString>
      <CharString index="120">
        13 28 rlineto
        return
      </CharString>
      <CharString index="121">
        rlineto
        -134 hlineto
        -23 -122 rlineto
        return
      </CharString>
      <CharString index="122">
        112 -90 90 -90 112 hstemhm
        return
      </CharString>
      <CharString index="123">
        83 -40 47 -87 -117 -79 -104 return
      </CharString>
      <CharString index="124">
        -41 65 0 -31 vvcurveto
        -11 -10 -6 return
      </CharString>
      <CharString index="125">
        15 21 10 4 32 2 10 vhcurveto
        return
      </CharString>
      <CharString index="126">
        7 -23 3 -34 -20 vvcurveto
        -118 return
      </CharString>
      <CharString index="127">
        -75 rlineto
        108 hlineto
        return
      </CharString>
      <CharString index="128">
        669 rlineto
        return
      </CharString>
</ttFont>
